<mxfile host="65bd71144e">
    <diagram id="ETKt579bIk2jOSbxSD9Q" name="Page-1">
        <mxGraphModel dx="1480" dy="1721" grid="1" gridSize="10" guides="1" tooltips="1" connect="1" arrows="1" fold="1" page="0" pageScale="1" pageWidth="850" pageHeight="1100" math="0" shadow="0">
            <root>
                <mxCell id="0"/>
                <mxCell id="1" parent="0"/>
                <mxCell id="23" style="edgeStyle=none;html=1;exitX=0.5;exitY=1;exitDx=0;exitDy=0;entryX=0.5;entryY=0;entryDx=0;entryDy=0;startArrow=none;startFill=0;endArrow=classicThin;endFill=1;fillColor=#f8cecc;strokeColor=#b85450;strokeWidth=2;" parent="1" source="2" target="22" edge="1">
                    <mxGeometry relative="1" as="geometry"/>
                </mxCell>
                <mxCell id="47" style="edgeStyle=none;html=1;exitX=0;exitY=0.5;exitDx=0;exitDy=0;startArrow=none;startFill=0;endArrow=none;endFill=0;fillColor=#d5e8d4;strokeColor=#82b366;strokeWidth=2;rounded=0;" parent="1" source="2" edge="1">
                    <mxGeometry relative="1" as="geometry">
                        <mxPoint x="120" y="-80" as="targetPoint"/>
                        <Array as="points">
                            <mxPoint x="120" y="560"/>
                        </Array>
                    </mxGeometry>
                </mxCell>
                <mxCell id="87" value="bus X (8)" style="edgeLabel;html=1;align=center;verticalAlign=middle;resizable=0;points=[];" parent="47" vertex="1" connectable="0">
                    <mxGeometry x="-0.4997" y="1" relative="1" as="geometry">
                        <mxPoint x="-2" y="30" as="offset"/>
                    </mxGeometry>
                </mxCell>
                <mxCell id="51" style="edgeStyle=none;html=1;exitX=1;exitY=0.5;exitDx=0;exitDy=0;startArrow=none;startFill=0;endArrow=none;endFill=0;fillColor=#dae8fc;strokeColor=#6c8ebf;rounded=0;strokeWidth=2;" parent="1" source="2" edge="1">
                    <mxGeometry relative="1" as="geometry">
                        <mxPoint x="360" y="-80" as="targetPoint"/>
                        <Array as="points">
                            <mxPoint x="360" y="560"/>
                        </Array>
                    </mxGeometry>
                </mxCell>
                <mxCell id="88" value="bus Y (8)" style="edgeLabel;html=1;align=center;verticalAlign=middle;resizable=0;points=[];" parent="51" vertex="1" connectable="0">
                    <mxGeometry x="-0.6033" relative="1" as="geometry">
                        <mxPoint as="offset"/>
                    </mxGeometry>
                </mxCell>
                <mxCell id="77" style="edgeStyle=none;rounded=0;html=1;exitX=0.5;exitY=1;exitDx=0;exitDy=0;entryX=0.5;entryY=0;entryDx=0;entryDy=0;startArrow=none;startFill=0;endArrow=classicThin;endFill=1;fillColor=#f8cecc;strokeColor=#b85450;strokeWidth=2;" parent="1" source="2" target="76" edge="1">
                    <mxGeometry relative="1" as="geometry">
                        <Array as="points">
                            <mxPoint x="230" y="620"/>
                            <mxPoint x="360" y="620"/>
                        </Array>
                    </mxGeometry>
                </mxCell>
                <mxCell id="93" value="store" style="edgeLabel;html=1;align=center;verticalAlign=middle;resizable=0;points=[];" parent="77" vertex="1" connectable="0">
                    <mxGeometry x="0.6476" y="2" relative="1" as="geometry">
                        <mxPoint as="offset"/>
                    </mxGeometry>
                </mxCell>
                <mxCell id="2" value="ALU" style="rounded=0;whiteSpace=wrap;html=1;" parent="1" vertex="1">
                    <mxGeometry x="170" y="520" width="120" height="80" as="geometry"/>
                </mxCell>
                <mxCell id="45" style="edgeStyle=none;html=1;exitX=0;exitY=0.5;exitDx=0;exitDy=0;startArrow=none;startFill=0;endArrow=classicThin;endFill=1;fillColor=#d5e8d4;strokeColor=#82b366;strokeWidth=2;" parent="1" source="4" edge="1">
                    <mxGeometry relative="1" as="geometry">
                        <mxPoint x="120" y="300.2608695652175" as="targetPoint"/>
                    </mxGeometry>
                </mxCell>
                <mxCell id="52" style="edgeStyle=none;html=1;exitX=1;exitY=0.5;exitDx=0;exitDy=0;startArrow=none;startFill=0;endArrow=classicThin;endFill=1;fillColor=#dae8fc;strokeColor=#6c8ebf;strokeWidth=2;" parent="1" source="4" edge="1">
                    <mxGeometry relative="1" as="geometry">
                        <mxPoint x="360" y="300.2608695652175" as="targetPoint"/>
                    </mxGeometry>
                </mxCell>
                <mxCell id="68" style="edgeStyle=none;rounded=0;html=1;exitX=0.5;exitY=0;exitDx=0;exitDy=0;startArrow=classic;startFill=1;endArrow=none;endFill=0;fillColor=#fff2cc;strokeColor=#d6b656;strokeWidth=2;" parent="1" source="4" edge="1">
                    <mxGeometry relative="1" as="geometry">
                        <mxPoint x="480" y="260" as="targetPoint"/>
                        <Array as="points">
                            <mxPoint x="240" y="260"/>
                        </Array>
                    </mxGeometry>
                </mxCell>
                <mxCell id="4" value="C" style="rounded=0;whiteSpace=wrap;html=1;" parent="1" vertex="1">
                    <mxGeometry x="200" y="280" width="80" height="40" as="geometry"/>
                </mxCell>
                <mxCell id="46" style="edgeStyle=none;html=1;exitX=0;exitY=0.5;exitDx=0;exitDy=0;startArrow=none;startFill=0;endArrow=classicThin;endFill=1;fillColor=#d5e8d4;strokeColor=#82b366;strokeWidth=2;" parent="1" source="5" edge="1">
                    <mxGeometry relative="1" as="geometry">
                        <mxPoint x="120" y="220.2608695652175" as="targetPoint"/>
                    </mxGeometry>
                </mxCell>
                <mxCell id="53" style="edgeStyle=none;html=1;exitX=1;exitY=0.5;exitDx=0;exitDy=0;startArrow=none;startFill=0;endArrow=classicThin;endFill=1;fillColor=#dae8fc;strokeColor=#6c8ebf;strokeWidth=2;" parent="1" source="5" edge="1">
                    <mxGeometry relative="1" as="geometry">
                        <mxPoint x="360" y="220.2608695652175" as="targetPoint"/>
                    </mxGeometry>
                </mxCell>
                <mxCell id="69" style="edgeStyle=none;rounded=0;html=1;exitX=0.5;exitY=0;exitDx=0;exitDy=0;startArrow=classic;startFill=1;endArrow=none;endFill=0;fillColor=#fff2cc;strokeColor=#d6b656;strokeWidth=2;" parent="1" source="5" edge="1">
                    <mxGeometry relative="1" as="geometry">
                        <mxPoint x="480" y="180" as="targetPoint"/>
                        <Array as="points">
                            <mxPoint x="240" y="180"/>
                        </Array>
                    </mxGeometry>
                </mxCell>
                <mxCell id="5" value="B" style="rounded=0;whiteSpace=wrap;html=1;" parent="1" vertex="1">
                    <mxGeometry x="200" y="200" width="80" height="40" as="geometry"/>
                </mxCell>
                <mxCell id="48" style="edgeStyle=none;html=1;exitX=0;exitY=0.5;exitDx=0;exitDy=0;startArrow=none;startFill=0;endArrow=classicThin;endFill=1;fillColor=#d5e8d4;strokeColor=#82b366;strokeWidth=2;" parent="1" source="6" edge="1">
                    <mxGeometry relative="1" as="geometry">
                        <mxPoint x="120" y="140.2608695652175" as="targetPoint"/>
                    </mxGeometry>
                </mxCell>
                <mxCell id="54" style="edgeStyle=none;html=1;exitX=1;exitY=0.5;exitDx=0;exitDy=0;startArrow=none;startFill=0;endArrow=classicThin;endFill=1;fillColor=#dae8fc;strokeColor=#6c8ebf;strokeWidth=2;" parent="1" source="6" edge="1">
                    <mxGeometry relative="1" as="geometry">
                        <mxPoint x="360" y="140.2608695652175" as="targetPoint"/>
                    </mxGeometry>
                </mxCell>
                <mxCell id="70" style="edgeStyle=none;rounded=0;html=1;exitX=0.5;exitY=0;exitDx=0;exitDy=0;startArrow=classic;startFill=1;endArrow=none;endFill=0;fillColor=#fff2cc;strokeColor=#d6b656;strokeWidth=2;" parent="1" source="6" edge="1">
                    <mxGeometry relative="1" as="geometry">
                        <mxPoint x="480" y="100" as="targetPoint"/>
                        <Array as="points">
                            <mxPoint x="240" y="100"/>
                        </Array>
                    </mxGeometry>
                </mxCell>
                <mxCell id="6" value="A" style="rounded=0;whiteSpace=wrap;html=1;" parent="1" vertex="1">
                    <mxGeometry x="200" y="120" width="80" height="40" as="geometry"/>
                </mxCell>
                <mxCell id="20" style="edgeStyle=none;html=1;exitX=0;exitY=0.5;exitDx=0;exitDy=0;startArrow=classicThin;startFill=1;endArrow=classicThin;endFill=1;fillColor=#dae8fc;strokeColor=#6c8ebf;entryX=1;entryY=0.5;entryDx=0;entryDy=0;strokeWidth=2;" parent="1" source="19" target="2" edge="1">
                    <mxGeometry relative="1" as="geometry">
                        <mxPoint x="360" y="460" as="targetPoint"/>
                    </mxGeometry>
                </mxCell>
                <mxCell id="55" style="edgeStyle=none;html=1;exitX=1;exitY=0.5;exitDx=0;exitDy=0;startArrow=classicThin;startFill=1;endArrow=none;endFill=0;fillColor=#fff2cc;strokeColor=#d6b656;strokeWidth=2;" parent="1" source="19" edge="1">
                    <mxGeometry relative="1" as="geometry">
                        <mxPoint x="480" y="560" as="targetPoint"/>
                    </mxGeometry>
                </mxCell>
                <mxCell id="19" value="bridge" style="rounded=0;whiteSpace=wrap;html=1;dashed=1;horizontal=0;" parent="1" vertex="1">
                    <mxGeometry x="400" y="520" width="40" height="80" as="geometry"/>
                </mxCell>
                <mxCell id="66" style="edgeStyle=none;rounded=0;html=1;exitX=0.5;exitY=1;exitDx=0;exitDy=0;startArrow=none;startFill=0;endArrow=classicThin;endFill=1;fillColor=#fff2cc;strokeColor=#d6b656;strokeWidth=2;" parent="1" source="22" edge="1">
                    <mxGeometry relative="1" as="geometry">
                        <mxPoint x="480" y="760" as="targetPoint"/>
                        <Array as="points">
                            <mxPoint x="230" y="760"/>
                        </Array>
                    </mxGeometry>
                </mxCell>
                <mxCell id="22" value="" style="rounded=0;whiteSpace=wrap;html=1;dashed=1;" parent="1" vertex="1">
                    <mxGeometry x="190" y="680" width="80" height="40" as="geometry"/>
                </mxCell>
                <mxCell id="33" style="edgeStyle=none;html=1;exitX=0;exitY=0.5;exitDx=0;exitDy=0;startArrow=classicThin;startFill=1;endArrow=classicThin;endFill=1;fillColor=#fff2cc;strokeColor=#d6b656;strokeWidth=2;" parent="1" source="24" edge="1">
                    <mxGeometry relative="1" as="geometry">
                        <mxPoint x="480" y="420" as="targetPoint"/>
                    </mxGeometry>
                </mxCell>
                <mxCell id="85" style="edgeStyle=none;rounded=0;html=1;exitX=1;exitY=0.5;exitDx=0;exitDy=0;strokeWidth=2;startArrow=classicThin;startFill=1;endArrow=none;endFill=0;fillColor=#e1d5e7;strokeColor=#9673a6;" parent="1" source="24" edge="1">
                    <mxGeometry relative="1" as="geometry">
                        <mxPoint x="760.0000000000002" y="419.7692307692307" as="targetPoint"/>
                    </mxGeometry>
                </mxCell>
                <mxCell id="24" value="RAM" style="rounded=0;whiteSpace=wrap;html=1;" parent="1" vertex="1">
                    <mxGeometry x="560" y="380" width="120" height="80" as="geometry"/>
                </mxCell>
                <mxCell id="34" style="edgeStyle=none;html=1;exitX=0;exitY=0.5;exitDx=0;exitDy=0;startArrow=classicThin;startFill=1;endArrow=none;endFill=0;fillColor=#fff2cc;strokeColor=#d6b656;strokeWidth=2;" parent="1" source="25" edge="1">
                    <mxGeometry relative="1" as="geometry">
                        <mxPoint x="480" y="560" as="targetPoint"/>
                    </mxGeometry>
                </mxCell>
                <mxCell id="84" style="edgeStyle=none;rounded=0;html=1;exitX=1;exitY=0.5;exitDx=0;exitDy=0;strokeWidth=2;startArrow=none;startFill=0;endArrow=classicThin;endFill=1;fillColor=#e1d5e7;strokeColor=#9673a6;" parent="1" source="25" edge="1">
                    <mxGeometry relative="1" as="geometry">
                        <mxPoint x="760.0000000000002" y="559.7692307692307" as="targetPoint"/>
                    </mxGeometry>
                </mxCell>
                <mxCell id="25" value="MAR" style="rounded=0;whiteSpace=wrap;html=1;strokeWidth=2;" parent="1" vertex="1">
                    <mxGeometry x="560" y="540" width="80" height="40" as="geometry"/>
                </mxCell>
                <mxCell id="36" style="edgeStyle=none;html=1;exitX=0;exitY=0.5;exitDx=0;exitDy=0;startArrow=classicThin;startFill=1;endArrow=none;endFill=0;fillColor=#fff2cc;strokeColor=#d6b656;strokeWidth=2;" parent="1" source="26" edge="1">
                    <mxGeometry relative="1" as="geometry">
                        <mxPoint x="480" y="300" as="targetPoint"/>
                    </mxGeometry>
                </mxCell>
                <mxCell id="83" style="edgeStyle=none;rounded=0;html=1;exitX=1;exitY=0.5;exitDx=0;exitDy=0;strokeWidth=2;startArrow=none;startFill=0;endArrow=classicThin;endFill=1;fillColor=#e1d5e7;strokeColor=#9673a6;" parent="1" source="26" edge="1">
                    <mxGeometry relative="1" as="geometry">
                        <mxPoint x="760.0000000000002" y="299.7692307692307" as="targetPoint"/>
                    </mxGeometry>
                </mxCell>
                <mxCell id="26" value="PC" style="rounded=0;whiteSpace=wrap;html=1;strokeWidth=2;" parent="1" vertex="1">
                    <mxGeometry x="560" y="280" width="80" height="40" as="geometry"/>
                </mxCell>
                <mxCell id="43" style="edgeStyle=none;html=1;exitX=0;exitY=0.5;exitDx=0;exitDy=0;startArrow=none;startFill=0;endArrow=classicThin;endFill=1;fillColor=#d5e8d4;strokeColor=#82b366;strokeWidth=2;" parent="1" source="42" edge="1">
                    <mxGeometry relative="1" as="geometry">
                        <mxPoint x="120" y="432.2608695652175" as="targetPoint"/>
                    </mxGeometry>
                </mxCell>
                <mxCell id="44" style="edgeStyle=none;html=1;exitX=1;exitY=0.5;exitDx=0;exitDy=0;startArrow=none;startFill=0;endArrow=classicThin;endFill=1;fillColor=#dae8fc;strokeColor=#6c8ebf;strokeWidth=2;" parent="1" source="42" edge="1">
                    <mxGeometry relative="1" as="geometry">
                        <mxPoint x="360" y="432.2608695652175" as="targetPoint"/>
                    </mxGeometry>
                </mxCell>
                <mxCell id="42" value="1" style="rounded=0;whiteSpace=wrap;html=1;" parent="1" vertex="1">
                    <mxGeometry x="200" y="412" width="80" height="40" as="geometry"/>
                </mxCell>
                <mxCell id="63" style="edgeStyle=none;rounded=0;html=1;exitX=0;exitY=0.5;exitDx=0;exitDy=0;startArrow=none;startFill=0;endArrow=classicThin;endFill=1;fillColor=#d5e8d4;strokeColor=#82b366;strokeWidth=2;" parent="1" source="62" edge="1">
                    <mxGeometry relative="1" as="geometry">
                        <mxPoint x="120" y="20" as="targetPoint"/>
                    </mxGeometry>
                </mxCell>
                <mxCell id="64" style="edgeStyle=none;rounded=0;html=1;exitX=1;exitY=0.5;exitDx=0;exitDy=0;startArrow=none;startFill=0;endArrow=classicThin;endFill=1;fillColor=#dae8fc;strokeColor=#6c8ebf;strokeWidth=2;" parent="1" source="62" edge="1">
                    <mxGeometry relative="1" as="geometry">
                        <mxPoint x="360" y="20" as="targetPoint"/>
                    </mxGeometry>
                </mxCell>
                <mxCell id="71" style="edgeStyle=none;rounded=0;html=1;exitX=0.5;exitY=0;exitDx=0;exitDy=0;startArrow=classic;startFill=1;endArrow=none;endFill=0;fillColor=#fff2cc;strokeColor=#d6b656;strokeWidth=2;" parent="1" source="62" edge="1">
                    <mxGeometry relative="1" as="geometry">
                        <mxPoint x="480" y="-20" as="targetPoint"/>
                        <Array as="points">
                            <mxPoint x="240" y="-20"/>
                        </Array>
                    </mxGeometry>
                </mxCell>
                <mxCell id="86" style="edgeStyle=none;rounded=0;html=1;exitX=0.5;exitY=1;exitDx=0;exitDy=0;strokeWidth=2;startArrow=none;startFill=0;endArrow=classicThin;endFill=1;fillColor=#e1d5e7;strokeColor=#9673a6;" parent="1" source="62" edge="1">
                    <mxGeometry relative="1" as="geometry">
                        <mxPoint x="239.86956521739148" y="70" as="targetPoint"/>
                    </mxGeometry>
                </mxCell>
                <mxCell id="62" value="SP" style="rounded=0;whiteSpace=wrap;html=1;strokeWidth=2;" parent="1" vertex="1">
                    <mxGeometry x="200" width="80" height="40" as="geometry"/>
                </mxCell>
                <mxCell id="65" value="" style="endArrow=none;html=1;rounded=0;fillColor=#fff2cc;strokeColor=#d6b656;strokeWidth=2;" parent="1" edge="1">
                    <mxGeometry width="50" height="50" relative="1" as="geometry">
                        <mxPoint x="480" y="760" as="sourcePoint"/>
                        <mxPoint x="480" y="-80" as="targetPoint"/>
                    </mxGeometry>
                </mxCell>
                <mxCell id="89" value="data bus (8)" style="edgeLabel;html=1;align=center;verticalAlign=middle;resizable=0;points=[];" parent="65" vertex="1" connectable="0">
                    <mxGeometry x="-0.7116" y="-1" relative="1" as="geometry">
                        <mxPoint y="80" as="offset"/>
                    </mxGeometry>
                </mxCell>
                <mxCell id="79" style="edgeStyle=none;rounded=1;html=1;exitX=0.5;exitY=1;exitDx=0;exitDy=0;startArrow=none;startFill=0;endArrow=classicThin;endFill=1;fillColor=#fff2cc;strokeColor=#d6b656;strokeWidth=2;" parent="1" source="76" edge="1">
                    <mxGeometry relative="1" as="geometry">
                        <mxPoint x="359.91044776119406" y="760" as="targetPoint"/>
                    </mxGeometry>
                </mxCell>
                <mxCell id="76" value="STORE" style="rounded=0;whiteSpace=wrap;html=1;" parent="1" vertex="1">
                    <mxGeometry x="320" y="680" width="80" height="40" as="geometry"/>
                </mxCell>
                <mxCell id="80" value="" style="endArrow=none;html=1;rounded=0;strokeWidth=2;fillColor=#e1d5e7;strokeColor=#9673a6;exitX=1;exitY=0.5;exitDx=0;exitDy=0;" parent="1" source="25" edge="1">
                    <mxGeometry width="50" height="50" relative="1" as="geometry">
                        <mxPoint x="760" y="520" as="sourcePoint"/>
                        <mxPoint x="240" y="70" as="targetPoint"/>
                        <Array as="points">
                            <mxPoint x="760" y="560"/>
                            <mxPoint x="760" y="70"/>
                        </Array>
                    </mxGeometry>
                </mxCell>
                <mxCell id="90" value="addr bus (16)" style="edgeLabel;html=1;align=center;verticalAlign=middle;resizable=0;points=[];" parent="80" vertex="1" connectable="0">
                    <mxGeometry x="-0.2629" y="-1" relative="1" as="geometry">
                        <mxPoint as="offset"/>
                    </mxGeometry>
                </mxCell>
                <mxCell id="91" value="&lt;p&gt;&lt;font style=&quot;font-size: 12px;&quot;&gt;← DIR_IN&lt;/font&gt;&lt;/p&gt;&lt;p&gt;&lt;span style=&quot;background-color: initial;&quot;&gt;→ DIR_OUT&lt;/span&gt;&lt;/p&gt;" style="text;html=1;align=left;verticalAlign=middle;resizable=0;points=[];autosize=1;strokeColor=none;fillColor=none;" parent="1" vertex="1">
                    <mxGeometry x="400" y="403" width="86" height="77" as="geometry"/>
                </mxCell>
                <mxCell id="95" style="edgeStyle=none;html=1;exitX=0;exitY=0.5;exitDx=0;exitDy=0;startArrow=none;startFill=0;endArrow=none;endFill=0;fillColor=#d5e8d4;strokeColor=#82b366;strokeWidth=2;rounded=0;" parent="1" source="101" edge="1">
                    <mxGeometry relative="1" as="geometry">
                        <mxPoint x="1360" y="-280" as="targetPoint"/>
                        <Array as="points">
                            <mxPoint x="1360" y="560"/>
                        </Array>
                    </mxGeometry>
                </mxCell>
                <mxCell id="96" value="bus X (8)" style="edgeLabel;html=1;align=center;verticalAlign=middle;resizable=0;points=[];" parent="95" vertex="1" connectable="0">
                    <mxGeometry x="-0.4997" y="1" relative="1" as="geometry">
                        <mxPoint x="-1" y="112" as="offset"/>
                    </mxGeometry>
                </mxCell>
                <mxCell id="156" style="edgeStyle=none;html=1;exitX=0.5;exitY=1;exitDx=0;exitDy=0;entryX=0;entryY=0.5;entryDx=0;entryDy=0;strokeWidth=2;startArrow=none;startFill=0;endArrow=classic;endFill=1;rounded=0;fillColor=#f8cecc;strokeColor=#b85450;" parent="1" source="101" target="155" edge="1">
                    <mxGeometry relative="1" as="geometry">
                        <Array as="points">
                            <mxPoint x="1470" y="650"/>
                        </Array>
                    </mxGeometry>
                </mxCell>
                <mxCell id="101" value="ALU" style="rounded=0;whiteSpace=wrap;html=1;" parent="1" vertex="1">
                    <mxGeometry x="1410" y="520" width="120" height="80" as="geometry"/>
                </mxCell>
                <mxCell id="102" style="edgeStyle=none;html=1;exitX=0;exitY=0.5;exitDx=0;exitDy=0;startArrow=none;startFill=0;endArrow=classicThin;endFill=1;fillColor=#d5e8d4;strokeColor=#82b366;strokeWidth=2;" parent="1" source="105" edge="1">
                    <mxGeometry relative="1" as="geometry">
                        <mxPoint x="1360" y="300.2608695652175" as="targetPoint"/>
                    </mxGeometry>
                </mxCell>
                <mxCell id="103" style="edgeStyle=none;html=1;exitX=1;exitY=0.5;exitDx=0;exitDy=0;startArrow=classicThin;startFill=1;endArrow=classicThin;endFill=1;fillColor=#fff2cc;strokeColor=#d6b656;strokeWidth=2;" parent="1" source="105" edge="1">
                    <mxGeometry relative="1" as="geometry">
                        <mxPoint x="1640" y="300" as="targetPoint"/>
                    </mxGeometry>
                </mxCell>
                <mxCell id="105" value="C" style="rounded=0;whiteSpace=wrap;html=1;" parent="1" vertex="1">
                    <mxGeometry x="1440" y="280" width="80" height="40" as="geometry"/>
                </mxCell>
                <mxCell id="106" style="edgeStyle=none;html=1;exitX=0;exitY=0.5;exitDx=0;exitDy=0;startArrow=none;startFill=0;endArrow=classicThin;endFill=1;fillColor=#d5e8d4;strokeColor=#82b366;strokeWidth=2;" parent="1" source="109" edge="1">
                    <mxGeometry relative="1" as="geometry">
                        <mxPoint x="1360" y="220.2608695652175" as="targetPoint"/>
                    </mxGeometry>
                </mxCell>
                <mxCell id="107" style="edgeStyle=none;html=1;exitX=1;exitY=0.5;exitDx=0;exitDy=0;startArrow=classicThin;startFill=1;endArrow=classicThin;endFill=1;fillColor=#fff2cc;strokeColor=#d6b656;strokeWidth=2;" parent="1" source="109" edge="1">
                    <mxGeometry relative="1" as="geometry">
                        <mxPoint x="1640" y="220" as="targetPoint"/>
                    </mxGeometry>
                </mxCell>
                <mxCell id="109" value="B" style="rounded=0;whiteSpace=wrap;html=1;" parent="1" vertex="1">
                    <mxGeometry x="1440" y="200" width="80" height="40" as="geometry"/>
                </mxCell>
                <mxCell id="110" style="edgeStyle=none;html=1;exitX=0;exitY=0.5;exitDx=0;exitDy=0;startArrow=none;startFill=0;endArrow=classicThin;endFill=1;fillColor=#d5e8d4;strokeColor=#82b366;strokeWidth=2;" parent="1" source="113" edge="1">
                    <mxGeometry relative="1" as="geometry">
                        <mxPoint x="1360" y="140.2608695652175" as="targetPoint"/>
                    </mxGeometry>
                </mxCell>
                <mxCell id="111" style="edgeStyle=none;html=1;exitX=1;exitY=0.5;exitDx=0;exitDy=0;startArrow=classicThin;startFill=1;endArrow=classicThin;endFill=1;fillColor=#fff2cc;strokeColor=#d6b656;strokeWidth=2;" parent="1" source="113" edge="1">
                    <mxGeometry relative="1" as="geometry">
                        <mxPoint x="1640" y="140" as="targetPoint"/>
                    </mxGeometry>
                </mxCell>
                <mxCell id="113" value="A" style="rounded=0;whiteSpace=wrap;html=1;" parent="1" vertex="1">
                    <mxGeometry x="1440" y="120" width="80" height="40" as="geometry"/>
                </mxCell>
                <mxCell id="117" style="edgeStyle=none;rounded=0;html=1;startArrow=none;startFill=0;endArrow=classicThin;endFill=1;fillColor=#f8cecc;strokeColor=#b85450;strokeWidth=2;exitX=0.5;exitY=1;exitDx=0;exitDy=0;entryX=0;entryY=0.5;entryDx=0;entryDy=0;" parent="1" source="101" target="153" edge="1">
                    <mxGeometry relative="1" as="geometry">
                        <mxPoint x="1640" y="650" as="targetPoint"/>
                        <Array as="points">
                            <mxPoint x="1470" y="720"/>
                        </Array>
                        <mxPoint x="1389" y="652" as="sourcePoint"/>
                    </mxGeometry>
                </mxCell>
                <mxCell id="119" style="edgeStyle=none;html=1;exitX=0;exitY=0.5;exitDx=0;exitDy=0;startArrow=classicThin;startFill=1;endArrow=classicThin;endFill=1;fillColor=#fff2cc;strokeColor=#d6b656;strokeWidth=2;" parent="1" source="121" edge="1">
                    <mxGeometry relative="1" as="geometry">
                        <mxPoint x="1640.0000000000002" y="420" as="targetPoint"/>
                    </mxGeometry>
                </mxCell>
                <mxCell id="120" style="edgeStyle=none;rounded=0;html=1;exitX=1;exitY=0.5;exitDx=0;exitDy=0;strokeWidth=2;startArrow=classicThin;startFill=1;endArrow=none;endFill=0;fillColor=#e1d5e7;strokeColor=#9673a6;" parent="1" source="121" edge="1">
                    <mxGeometry relative="1" as="geometry">
                        <mxPoint x="1920" y="419.7692307692305" as="targetPoint"/>
                    </mxGeometry>
                </mxCell>
                <mxCell id="121" value="RAM" style="rounded=0;whiteSpace=wrap;html=1;" parent="1" vertex="1">
                    <mxGeometry x="1730" y="380" width="120" height="80" as="geometry"/>
                </mxCell>
                <mxCell id="122" style="edgeStyle=none;html=1;exitX=0;exitY=0.5;exitDx=0;exitDy=0;startArrow=classicThin;startFill=1;endArrow=none;endFill=0;fillColor=#fff2cc;strokeColor=#d6b656;strokeWidth=2;" parent="1" source="124" edge="1">
                    <mxGeometry relative="1" as="geometry">
                        <mxPoint x="1640.0000000000002" y="560" as="targetPoint"/>
                    </mxGeometry>
                </mxCell>
                <mxCell id="123" style="edgeStyle=none;rounded=0;html=1;exitX=1;exitY=0.5;exitDx=0;exitDy=0;strokeWidth=2;startArrow=none;startFill=0;endArrow=classicThin;endFill=1;fillColor=#e1d5e7;strokeColor=#9673a6;" parent="1" source="124" edge="1">
                    <mxGeometry relative="1" as="geometry">
                        <mxPoint x="1920" y="559.7692307692305" as="targetPoint"/>
                    </mxGeometry>
                </mxCell>
                <mxCell id="124" value="MAR" style="rounded=0;whiteSpace=wrap;html=1;" parent="1" vertex="1">
                    <mxGeometry x="1730" y="540" width="80" height="40" as="geometry"/>
                </mxCell>
                <mxCell id="125" style="edgeStyle=none;html=1;exitX=0;exitY=0.5;exitDx=0;exitDy=0;startArrow=none;startFill=0;endArrow=classicThin;endFill=1;fillColor=#fff2cc;strokeColor=#d6b656;strokeWidth=2;" parent="1" source="127" edge="1">
                    <mxGeometry relative="1" as="geometry">
                        <mxPoint x="1640.0000000000002" y="300" as="targetPoint"/>
                    </mxGeometry>
                </mxCell>
                <mxCell id="126" style="edgeStyle=none;rounded=0;html=1;exitX=1;exitY=0.5;exitDx=0;exitDy=0;strokeWidth=2;startArrow=classicThin;startFill=1;endArrow=classicThin;endFill=1;fillColor=#e1d5e7;strokeColor=#9673a6;" parent="1" source="127" edge="1">
                    <mxGeometry relative="1" as="geometry">
                        <mxPoint x="1920" y="299.7692307692305" as="targetPoint"/>
                    </mxGeometry>
                </mxCell>
                <mxCell id="127" value="PC" style="rounded=0;whiteSpace=wrap;html=1;" parent="1" vertex="1">
                    <mxGeometry x="1730" y="280" width="80" height="40" as="geometry"/>
                </mxCell>
                <mxCell id="128" style="edgeStyle=none;html=1;exitX=0;exitY=0.5;exitDx=0;exitDy=0;startArrow=none;startFill=0;endArrow=classicThin;endFill=1;fillColor=#d5e8d4;strokeColor=#82b366;strokeWidth=2;" parent="1" source="130" edge="1">
                    <mxGeometry relative="1" as="geometry">
                        <mxPoint x="1360" y="460.2608695652175" as="targetPoint"/>
                    </mxGeometry>
                </mxCell>
                <mxCell id="129" style="edgeStyle=none;html=1;exitX=1;exitY=0.5;exitDx=0;exitDy=0;startArrow=none;startFill=0;endArrow=classicThin;endFill=1;fillColor=#fff2cc;strokeColor=#d6b656;strokeWidth=2;" parent="1" source="130" edge="1">
                    <mxGeometry relative="1" as="geometry">
                        <mxPoint x="1640" y="460" as="targetPoint"/>
                    </mxGeometry>
                </mxCell>
                <mxCell id="130" value="1" style="rounded=0;whiteSpace=wrap;html=1;" parent="1" vertex="1">
                    <mxGeometry x="1440" y="440" width="80" height="40" as="geometry"/>
                </mxCell>
                <mxCell id="136" value="" style="endArrow=none;html=1;rounded=0;fillColor=#fff2cc;strokeColor=#d6b656;strokeWidth=2;exitX=1;exitY=0.5;exitDx=0;exitDy=0;" parent="1" source="153" edge="1">
                    <mxGeometry width="50" height="50" relative="1" as="geometry">
                        <mxPoint x="1640" y="650" as="sourcePoint"/>
                        <mxPoint x="1640" y="-280" as="targetPoint"/>
                        <Array as="points">
                            <mxPoint x="1640" y="720"/>
                        </Array>
                    </mxGeometry>
                </mxCell>
                <mxCell id="137" value="data bus (8)" style="edgeLabel;html=1;align=center;verticalAlign=middle;resizable=0;points=[];" parent="136" vertex="1" connectable="0">
                    <mxGeometry x="-0.7116" y="-1" relative="1" as="geometry">
                        <mxPoint x="-11" y="-36" as="offset"/>
                    </mxGeometry>
                </mxCell>
                <mxCell id="142" value="" style="endArrow=none;html=1;rounded=0;strokeWidth=2;fillColor=#e1d5e7;strokeColor=#9673a6;exitX=1;exitY=0.5;exitDx=0;exitDy=0;" parent="1" edge="1">
                    <mxGeometry width="50" height="50" relative="1" as="geometry">
                        <mxPoint x="1870" y="560" as="sourcePoint"/>
                        <mxPoint x="1920" y="-284" as="targetPoint"/>
                        <Array as="points">
                            <mxPoint x="1920" y="560"/>
                            <mxPoint x="1920" y="70"/>
                        </Array>
                    </mxGeometry>
                </mxCell>
                <mxCell id="143" value="addr bus (16)" style="edgeLabel;html=1;align=center;verticalAlign=middle;resizable=0;points=[];" parent="142" vertex="1" connectable="0">
                    <mxGeometry x="-0.2629" y="-1" relative="1" as="geometry">
                        <mxPoint x="-2" y="70" as="offset"/>
                    </mxGeometry>
                </mxCell>
                <mxCell id="146" style="edgeStyle=none;rounded=0;html=1;exitX=1;exitY=0.5;exitDx=0;exitDy=0;startArrow=none;startFill=0;endArrow=classicThin;endFill=1;fillColor=#d5e8d4;strokeColor=#82b366;strokeWidth=2;" parent="1" source="148" edge="1">
                    <mxGeometry relative="1" as="geometry">
                        <mxPoint x="1360" y="-80" as="targetPoint"/>
                    </mxGeometry>
                </mxCell>
                <mxCell id="147" style="edgeStyle=none;html=1;exitX=1;exitY=0.5;exitDx=0;exitDy=0;startArrow=classicThin;startFill=1;endArrow=none;endFill=0;strokeWidth=2;fillColor=#fff2cc;strokeColor=#d6b656;" parent="1" source="148" edge="1">
                    <mxGeometry relative="1" as="geometry">
                        <mxPoint x="1640" y="-80" as="targetPoint"/>
                    </mxGeometry>
                </mxCell>
                <mxCell id="148" value="SP" style="rounded=0;whiteSpace=wrap;html=1;" parent="1" vertex="1">
                    <mxGeometry x="1440" y="-100" width="80" height="40" as="geometry"/>
                </mxCell>
                <mxCell id="150" style="edgeStyle=none;rounded=0;html=1;exitX=0.5;exitY=0;exitDx=0;exitDy=0;strokeWidth=2;startArrow=classicThin;startFill=1;endArrow=classicThin;endFill=1;fillColor=#e1d5e7;strokeColor=#9673a6;" parent="1" source="148" edge="1">
                    <mxGeometry relative="1" as="geometry">
                        <mxPoint x="1920" y="-130" as="targetPoint"/>
                        <mxPoint x="1700" y="-39.67" as="sourcePoint"/>
                        <Array as="points">
                            <mxPoint x="1480" y="-130"/>
                        </Array>
                    </mxGeometry>
                </mxCell>
                <mxCell id="152" value="" style="endArrow=none;html=1;strokeWidth=2;fillColor=#fff2cc;strokeColor=#d6b656;exitX=1;exitY=0.5;exitDx=0;exitDy=0;endFill=0;startArrow=classicThin;startFill=1;" parent="1" source="101" edge="1">
                    <mxGeometry width="50" height="50" relative="1" as="geometry">
                        <mxPoint x="1600" y="560" as="sourcePoint"/>
                        <mxPoint x="1640" y="560" as="targetPoint"/>
                    </mxGeometry>
                </mxCell>
                <mxCell id="153" value="" style="rounded=0;whiteSpace=wrap;html=1;dashed=1;" parent="1" vertex="1">
                    <mxGeometry x="1510" y="700" width="80" height="40" as="geometry"/>
                </mxCell>
                <mxCell id="157" style="edgeStyle=none;rounded=0;html=1;exitX=1;exitY=0.5;exitDx=0;exitDy=0;strokeWidth=2;startArrow=classicThin;startFill=1;endArrow=classicThin;endFill=1;fillColor=#fff2cc;strokeColor=#d6b656;" parent="1" source="155" edge="1">
                    <mxGeometry relative="1" as="geometry">
                        <mxPoint x="1640" y="650.081081081081" as="targetPoint"/>
                    </mxGeometry>
                </mxCell>
                <mxCell id="155" value="STORE" style="rounded=0;whiteSpace=wrap;html=1;" parent="1" vertex="1">
                    <mxGeometry x="1510" y="630" width="80" height="40" as="geometry"/>
                </mxCell>
                <mxCell id="159" style="edgeStyle=none;rounded=0;html=1;exitX=0;exitY=0.5;exitDx=0;exitDy=0;strokeWidth=2;startArrow=classicThin;startFill=1;endArrow=classicThin;endFill=1;fillColor=#fff2cc;strokeColor=#d6b656;" parent="1" source="158" edge="1">
                    <mxGeometry relative="1" as="geometry">
                        <mxPoint x="480" y="219.8888888888889" as="targetPoint"/>
                    </mxGeometry>
                </mxCell>
                <mxCell id="158" value="MDR" style="rounded=0;whiteSpace=wrap;html=1;" parent="1" vertex="1">
                    <mxGeometry x="560" y="200" width="80" height="40" as="geometry"/>
                </mxCell>
                <mxCell id="162" style="edgeStyle=none;html=1;exitX=0;exitY=0.5;exitDx=0;exitDy=0;startArrow=none;startFill=0;endArrow=classicThin;endFill=1;fillColor=#d5e8d4;strokeColor=#82b366;strokeWidth=2;" parent="1" source="164" edge="1">
                    <mxGeometry relative="1" as="geometry">
                        <mxPoint x="1360" y="380.2608695652175" as="targetPoint"/>
                    </mxGeometry>
                </mxCell>
                <mxCell id="163" style="edgeStyle=none;html=1;exitX=1;exitY=0.5;exitDx=0;exitDy=0;startArrow=classicThin;startFill=1;endArrow=classicThin;endFill=1;fillColor=#fff2cc;strokeColor=#d6b656;strokeWidth=2;" parent="1" source="164" edge="1">
                    <mxGeometry relative="1" as="geometry">
                        <mxPoint x="1640" y="380" as="targetPoint"/>
                    </mxGeometry>
                </mxCell>
                <mxCell id="164" value="D" style="rounded=0;whiteSpace=wrap;html=1;" parent="1" vertex="1">
                    <mxGeometry x="1440" y="360" width="80" height="40" as="geometry"/>
                </mxCell>
                <mxCell id="165" style="edgeStyle=none;html=1;exitX=0;exitY=0.5;exitDx=0;exitDy=0;startArrow=none;startFill=0;endArrow=classicThin;endFill=1;fillColor=#d5e8d4;strokeColor=#82b366;strokeWidth=2;" parent="1" source="167" edge="1">
                    <mxGeometry relative="1" as="geometry">
                        <mxPoint x="120" y="371.2608695652175" as="targetPoint"/>
                    </mxGeometry>
                </mxCell>
                <mxCell id="166" style="edgeStyle=none;html=1;exitX=1;exitY=0.5;exitDx=0;exitDy=0;startArrow=none;startFill=0;endArrow=classicThin;endFill=1;fillColor=#dae8fc;strokeColor=#6c8ebf;strokeWidth=2;" parent="1" source="167" edge="1">
                    <mxGeometry relative="1" as="geometry">
                        <mxPoint x="360" y="371.2608695652175" as="targetPoint"/>
                    </mxGeometry>
                </mxCell>
                <mxCell id="167" value="D" style="rounded=0;whiteSpace=wrap;html=1;" parent="1" vertex="1">
                    <mxGeometry x="200" y="351" width="80" height="40" as="geometry"/>
                </mxCell>
                <mxCell id="168" style="edgeStyle=none;rounded=0;html=1;startArrow=classic;startFill=1;endArrow=none;endFill=0;fillColor=#fff2cc;strokeColor=#d6b656;strokeWidth=2;exitX=0.5;exitY=0;exitDx=0;exitDy=0;" parent="1" source="167" edge="1">
                    <mxGeometry relative="1" as="geometry">
                        <mxPoint x="480" y="331" as="targetPoint"/>
                        <Array as="points">
                            <mxPoint x="240" y="331"/>
                        </Array>
                        <mxPoint x="238" y="351" as="sourcePoint"/>
                    </mxGeometry>
                </mxCell>
                <mxCell id="169" value="&lt;div style=&quot;color: rgb(93, 93, 95); background-color: rgb(235, 238, 245); font-family: Monaco, Menlo, Monaco, &amp;quot;Courier New&amp;quot;, monospace; font-weight: 200; font-size: 16px; line-height: 32px;&quot;&gt;&lt;div style=&quot;line-height: 32px;&quot;&gt;&lt;div&gt;&lt;span style=&quot;color: #cd6069;&quot;&gt;instruction&lt;/span&gt;&lt;span style=&quot;font-weight: bold;&quot;&gt;.&lt;/span&gt;&lt;span style=&quot;color: #cd6069;&quot;&gt;INST_BREAK&lt;/span&gt;: {&lt;/div&gt;&lt;div&gt;            &lt;span style=&quot;color: #ff6d12;&quot;&gt;0&lt;/span&gt;: MI_PC_OUT &lt;span style=&quot;color: #00bec4;&quot;&gt;|&lt;/span&gt; MI_RAM_OUT &lt;span style=&quot;color: #00bec4;&quot;&gt;|&lt;/span&gt; MI_INST_REG_IN &lt;span style=&quot;color: #00bec4;&quot;&gt;|&lt;/span&gt; MI_PC_INC &lt;span style=&quot;color: #00bec4;&quot;&gt;|&lt;/span&gt; MI_STEP_INC&lt;span style=&quot;color: #a0a1a7;&quot;&gt;,&lt;/span&gt;&lt;/div&gt;&lt;div&gt;            &lt;span style=&quot;color: #ff6d12;&quot;&gt;1&lt;/span&gt;: MI_BRK&lt;span style=&quot;color: #a0a1a7;&quot;&gt;,&lt;/span&gt;&lt;/div&gt;&lt;div&gt;            &lt;span style=&quot;color: #ff6d12;&quot;&gt;2&lt;/span&gt;: MI_BRK&lt;span style=&quot;color: #a0a1a7;&quot;&gt;,&lt;/span&gt;&lt;/div&gt;&lt;div&gt;            &lt;span style=&quot;color: #ff6d12;&quot;&gt;3&lt;/span&gt;: MI_BRK&lt;span style=&quot;color: #a0a1a7;&quot;&gt;,&lt;/span&gt;&lt;/div&gt;&lt;div&gt;            &lt;span style=&quot;color: #ff6d12;&quot;&gt;4&lt;/span&gt;: MI_BRK&lt;span style=&quot;color: #a0a1a7;&quot;&gt;,&lt;/span&gt;&lt;/div&gt;&lt;div&gt;            &lt;span style=&quot;color: #ff6d12;&quot;&gt;5&lt;/span&gt;: MI_BRK&lt;span style=&quot;color: #a0a1a7;&quot;&gt;,&lt;/span&gt;&lt;/div&gt;&lt;div&gt;            &lt;span style=&quot;color: #ff6d12;&quot;&gt;6&lt;/span&gt;: MI_BRK&lt;span style=&quot;color: #a0a1a7;&quot;&gt;,&lt;/span&gt;&lt;/div&gt;&lt;div&gt;            &lt;span style=&quot;color: #ff6d12;&quot;&gt;7&lt;/span&gt;: MI_BRK&lt;span style=&quot;color: #a0a1a7;&quot;&gt;,&lt;/span&gt;&lt;/div&gt;&lt;div&gt;        }&lt;span style=&quot;color: #a0a1a7;&quot;&gt;,&lt;/span&gt;&lt;/div&gt;&lt;div&gt;        &lt;span style=&quot;color: #cd6069;&quot;&gt;instruction&lt;/span&gt;&lt;span style=&quot;font-weight: bold;&quot;&gt;.&lt;/span&gt;&lt;span style=&quot;color: #cd6069;&quot;&gt;INST_JMP_INM&lt;/span&gt;: {&lt;/div&gt;&lt;div&gt;            &lt;span style=&quot;color: #ff6d12;&quot;&gt;0&lt;/span&gt;: MI_PC_OUT &lt;span style=&quot;color: #00bec4;&quot;&gt;|&lt;/span&gt; MI_RAM_OUT &lt;span style=&quot;color: #00bec4;&quot;&gt;|&lt;/span&gt; MI_INST_REG_IN &lt;span style=&quot;color: #00bec4;&quot;&gt;|&lt;/span&gt; MI_PC_INC &lt;span style=&quot;color: #00bec4;&quot;&gt;|&lt;/span&gt; MI_STEP_INC&lt;span style=&quot;color: #a0a1a7;&quot;&gt;,&lt;/span&gt; &lt;span style=&quot;color: #a9a9aa;&quot;&gt;//&lt;/span&gt;&lt;span style=&quot;color: #a9a9aa;font-style: italic;&quot;&gt; fetch next instruction&lt;/span&gt;&lt;/div&gt;&lt;div&gt;            &lt;span style=&quot;color: #ff6d12;&quot;&gt;1&lt;/span&gt;: MI_PC_OUT &lt;span style=&quot;color: #00bec4;&quot;&gt;|&lt;/span&gt; MI_RAM_OUT &lt;span style=&quot;color: #00bec4;&quot;&gt;|&lt;/span&gt; MI_MAR_L_IN &lt;span style=&quot;color: #00bec4;&quot;&gt;|&lt;/span&gt; MI_PC_INC &lt;span style=&quot;color: #00bec4;&quot;&gt;|&lt;/span&gt; MI_STEP_INC&lt;span style=&quot;color: #a0a1a7;&quot;&gt;,&lt;/span&gt;&lt;/div&gt;&lt;div&gt;            &lt;span style=&quot;color: #ff6d12;&quot;&gt;2&lt;/span&gt;: MI_PC_OUT &lt;span style=&quot;color: #00bec4;&quot;&gt;|&lt;/span&gt; MI_RAM_OUT &lt;span style=&quot;color: #00bec4;&quot;&gt;|&lt;/span&gt; MI_MAR_H_IN &lt;span style=&quot;color: #00bec4;&quot;&gt;|&lt;/span&gt; MI_PC_INC &lt;span style=&quot;color: #00bec4;&quot;&gt;|&lt;/span&gt; MI_STEP_INC&lt;span style=&quot;color: #a0a1a7;&quot;&gt;,&lt;/span&gt;&lt;/div&gt;&lt;div&gt;            &lt;span style=&quot;color: #ff6d12;&quot;&gt;3&lt;/span&gt;: MI_MAR_OUT &lt;span style=&quot;color: #00bec4;&quot;&gt;|&lt;/span&gt; MI_PC_IN &lt;span style=&quot;color: #00bec4;&quot;&gt;|&lt;/span&gt; MI_STEP_CLR&lt;span style=&quot;color: #a0a1a7;&quot;&gt;,&lt;/span&gt;&lt;/div&gt;&lt;div&gt;        }&lt;span style=&quot;color: #a0a1a7;&quot;&gt;,&lt;/span&gt;&lt;/div&gt;&lt;div&gt;        &lt;span style=&quot;color: #cd6069;&quot;&gt;instruction&lt;/span&gt;&lt;span style=&quot;font-weight: bold;&quot;&gt;.&lt;/span&gt;&lt;span style=&quot;color: #cd6069;&quot;&gt;INST_JZ_INM&lt;/span&gt;: {&lt;/div&gt;&lt;div&gt;            &lt;span style=&quot;color: #ff6d12;&quot;&gt;0&lt;/span&gt;: MI_PC_OUT &lt;span style=&quot;color: #00bec4;&quot;&gt;|&lt;/span&gt; MI_RAM_OUT &lt;span style=&quot;color: #00bec4;&quot;&gt;|&lt;/span&gt; MI_INST_REG_IN &lt;span style=&quot;color: #00bec4;&quot;&gt;|&lt;/span&gt; MI_PC_INC &lt;span style=&quot;color: #00bec4;&quot;&gt;|&lt;/span&gt; MI_STEP_INC&lt;span style=&quot;color: #a0a1a7;&quot;&gt;,&lt;/span&gt; &lt;span style=&quot;color: #a9a9aa;&quot;&gt;//&lt;/span&gt;&lt;span style=&quot;color: #a9a9aa;font-style: italic;&quot;&gt; fetch next instruction&lt;/span&gt;&lt;/div&gt;&lt;div&gt;            &lt;span style=&quot;color: #ff6d12;&quot;&gt;1&lt;/span&gt;: MI_JMP_CTRL &lt;span style=&quot;color: #00bec4;&quot;&gt;|&lt;/span&gt; MI_STEP_INC&lt;span style=&quot;color: #a0a1a7;&quot;&gt;,&lt;/span&gt;&lt;/div&gt;&lt;div&gt;            &lt;span style=&quot;color: #ff6d12;&quot;&gt;2&lt;/span&gt;: MI_PC_OUT &lt;span style=&quot;color: #00bec4;&quot;&gt;|&lt;/span&gt; MI_RAM_OUT &lt;span style=&quot;color: #00bec4;&quot;&gt;|&lt;/span&gt; MI_MAR_L_IN &lt;span style=&quot;color: #00bec4;&quot;&gt;|&lt;/span&gt; MI_PC_INC &lt;span style=&quot;color: #00bec4;&quot;&gt;|&lt;/span&gt; MI_STEP_INC&lt;span style=&quot;color: #a0a1a7;&quot;&gt;,&lt;/span&gt;&lt;/div&gt;&lt;div&gt;            &lt;span style=&quot;color: #ff6d12;&quot;&gt;3&lt;/span&gt;: MI_PC_OUT &lt;span style=&quot;color: #00bec4;&quot;&gt;|&lt;/span&gt; MI_RAM_OUT &lt;span style=&quot;color: #00bec4;&quot;&gt;|&lt;/span&gt; MI_MAR_H_IN &lt;span style=&quot;color: #00bec4;&quot;&gt;|&lt;/span&gt; MI_PC_INC &lt;span style=&quot;color: #00bec4;&quot;&gt;|&lt;/span&gt; MI_STEP_INC&lt;span style=&quot;color: #a0a1a7;&quot;&gt;,&lt;/span&gt;&lt;/div&gt;&lt;div&gt;            &lt;span style=&quot;color: #ff6d12;&quot;&gt;4&lt;/span&gt;: MI_MAR_OUT &lt;span style=&quot;color: #00bec4;&quot;&gt;|&lt;/span&gt; MI_PC_IN &lt;span style=&quot;color: #00bec4;&quot;&gt;|&lt;/span&gt; MI_STEP_CLR&lt;span style=&quot;color: #a0a1a7;&quot;&gt;,&lt;/span&gt;&lt;/div&gt;&lt;div&gt;        }&lt;span style=&quot;color: #a0a1a7;&quot;&gt;,&lt;/span&gt;&lt;/div&gt;&lt;div&gt;        &lt;span style=&quot;color: #cd6069;&quot;&gt;instruction&lt;/span&gt;&lt;span style=&quot;font-weight: bold;&quot;&gt;.&lt;/span&gt;&lt;span style=&quot;color: #cd6069;&quot;&gt;INST_MOV_INM_8&lt;/span&gt;: {&lt;/div&gt;&lt;div&gt;            &lt;span style=&quot;color: #ff6d12;&quot;&gt;0&lt;/span&gt;: MI_PC_OUT &lt;span style=&quot;color: #00bec4;&quot;&gt;|&lt;/span&gt; MI_RAM_OUT &lt;span style=&quot;color: #00bec4;&quot;&gt;|&lt;/span&gt; MI_INST_REG_IN &lt;span style=&quot;color: #00bec4;&quot;&gt;|&lt;/span&gt; MI_PC_INC &lt;span style=&quot;color: #00bec4;&quot;&gt;|&lt;/span&gt; MI_STEP_INC&lt;span style=&quot;color: #a0a1a7;&quot;&gt;,&lt;/span&gt;    &lt;span style=&quot;color: #a9a9aa;&quot;&gt;//&lt;/span&gt;&lt;span style=&quot;color: #a9a9aa;font-style: italic;&quot;&gt; fetch next instruction&lt;/span&gt;&lt;/div&gt;&lt;div&gt;            &lt;span style=&quot;color: #ff6d12;&quot;&gt;1&lt;/span&gt;: MI_PC_OUT &lt;span style=&quot;color: #00bec4;&quot;&gt;|&lt;/span&gt; MI_RAM_OUT &lt;span style=&quot;color: #00bec4;&quot;&gt;|&lt;/span&gt; MI_OPERAND_REG_IN &lt;span style=&quot;color: #00bec4;&quot;&gt;|&lt;/span&gt; MI_PC_INC &lt;span style=&quot;color: #00bec4;&quot;&gt;|&lt;/span&gt; MI_STEP_INC&lt;span style=&quot;color: #a0a1a7;&quot;&gt;,&lt;/span&gt; &lt;span style=&quot;color: #a9a9aa;&quot;&gt;//&lt;/span&gt;&lt;span style=&quot;color: #a9a9aa;font-style: italic;&quot;&gt; load operation register&lt;/span&gt;&lt;/div&gt;&lt;div&gt;            &lt;span style=&quot;color: #ff6d12;&quot;&gt;2&lt;/span&gt;: MI_PC_OUT &lt;span style=&quot;color: #00bec4;&quot;&gt;|&lt;/span&gt; MI_RAM_OUT &lt;span style=&quot;color: #00bec4;&quot;&gt;|&lt;/span&gt; MI_REG_OPERAND_1_IN &lt;span style=&quot;color: #00bec4;&quot;&gt;|&lt;/span&gt; MI_PC_INC &lt;span style=&quot;color: #00bec4;&quot;&gt;|&lt;/span&gt; MI_STEP_CLR&lt;span style=&quot;color: #a0a1a7;&quot;&gt;,&lt;/span&gt;&lt;/div&gt;&lt;div&gt;        }&lt;span style=&quot;color: #a0a1a7;&quot;&gt;,&lt;/span&gt;&lt;/div&gt;&lt;div&gt;        &lt;span style=&quot;color: #cd6069;&quot;&gt;instruction&lt;/span&gt;&lt;span style=&quot;font-weight: bold;&quot;&gt;.&lt;/span&gt;&lt;span style=&quot;color: #cd6069;&quot;&gt;INTS_MOV_REG_REG&lt;/span&gt;: {&lt;/div&gt;&lt;div&gt;            &lt;span style=&quot;color: #ff6d12;&quot;&gt;0&lt;/span&gt;: MI_PC_OUT &lt;span style=&quot;color: #00bec4;&quot;&gt;|&lt;/span&gt; MI_RAM_OUT &lt;span style=&quot;color: #00bec4;&quot;&gt;|&lt;/span&gt; MI_INST_REG_IN &lt;span style=&quot;color: #00bec4;&quot;&gt;|&lt;/span&gt; MI_PC_INC &lt;span style=&quot;color: #00bec4;&quot;&gt;|&lt;/span&gt; MI_STEP_INC&lt;span style=&quot;color: #a0a1a7;&quot;&gt;,&lt;/span&gt;    &lt;span style=&quot;color: #a9a9aa;&quot;&gt;//&lt;/span&gt;&lt;span style=&quot;color: #a9a9aa;font-style: italic;&quot;&gt; fetch next instruction&lt;/span&gt;&lt;/div&gt;&lt;div&gt;            &lt;span style=&quot;color: #ff6d12;&quot;&gt;1&lt;/span&gt;: MI_PC_OUT &lt;span style=&quot;color: #00bec4;&quot;&gt;|&lt;/span&gt; MI_RAM_OUT &lt;span style=&quot;color: #00bec4;&quot;&gt;|&lt;/span&gt; MI_OPERAND_REG_IN &lt;span style=&quot;color: #00bec4;&quot;&gt;|&lt;/span&gt; MI_PC_INC &lt;span style=&quot;color: #00bec4;&quot;&gt;|&lt;/span&gt; MI_STEP_INC&lt;span style=&quot;color: #a0a1a7;&quot;&gt;,&lt;/span&gt; &lt;span style=&quot;color: #a9a9aa;&quot;&gt;//&lt;/span&gt;&lt;span style=&quot;color: #a9a9aa;font-style: italic;&quot;&gt; load operation register&lt;/span&gt;&lt;/div&gt;&lt;div&gt;            &lt;span style=&quot;color: #ff6d12;&quot;&gt;2&lt;/span&gt;: MI_BRIDGE_ENABLE &lt;span style=&quot;color: #00bec4;&quot;&gt;|&lt;/span&gt; MI_BRIDGE_DIR_OUT &lt;span style=&quot;color: #00bec4;&quot;&gt;|&lt;/span&gt; MI_REG_OPERAND_2_OUT_Y &lt;span style=&quot;color: #00bec4;&quot;&gt;|&lt;/span&gt; MI_REG_OPERAND_1_IN &lt;span style=&quot;color: #00bec4;&quot;&gt;|&lt;/span&gt; MI_STEP_CLR&lt;span style=&quot;color: #a0a1a7;&quot;&gt;,&lt;/span&gt;&lt;/div&gt;&lt;div&gt;        }&lt;span style=&quot;color: #a0a1a7;&quot;&gt;,&lt;/span&gt;&lt;/div&gt;&lt;div&gt;        &lt;span style=&quot;color: #cd6069;&quot;&gt;instruction&lt;/span&gt;&lt;span style=&quot;font-weight: bold;&quot;&gt;.&lt;/span&gt;&lt;span style=&quot;color: #cd6069;&quot;&gt;INST_MOV_MEM_REG&lt;/span&gt;: {&lt;/div&gt;&lt;div&gt;            &lt;span style=&quot;color: #ff6d12;&quot;&gt;0&lt;/span&gt;: MI_PC_OUT &lt;span style=&quot;color: #00bec4;&quot;&gt;|&lt;/span&gt; MI_RAM_OUT &lt;span style=&quot;color: #00bec4;&quot;&gt;|&lt;/span&gt; MI_INST_REG_IN &lt;span style=&quot;color: #00bec4;&quot;&gt;|&lt;/span&gt; MI_PC_INC &lt;span style=&quot;color: #00bec4;&quot;&gt;|&lt;/span&gt; MI_STEP_INC&lt;span style=&quot;color: #a0a1a7;&quot;&gt;,&lt;/span&gt;    &lt;span style=&quot;color: #a9a9aa;&quot;&gt;//&lt;/span&gt;&lt;span style=&quot;color: #a9a9aa;font-style: italic;&quot;&gt; fetch next instruction&lt;/span&gt;&lt;/div&gt;&lt;div&gt;            &lt;span style=&quot;color: #ff6d12;&quot;&gt;1&lt;/span&gt;: MI_PC_OUT &lt;span style=&quot;color: #00bec4;&quot;&gt;|&lt;/span&gt; MI_RAM_OUT &lt;span style=&quot;color: #00bec4;&quot;&gt;|&lt;/span&gt; MI_OPERAND_REG_IN &lt;span style=&quot;color: #00bec4;&quot;&gt;|&lt;/span&gt; MI_PC_INC &lt;span style=&quot;color: #00bec4;&quot;&gt;|&lt;/span&gt; MI_STEP_INC&lt;span style=&quot;color: #a0a1a7;&quot;&gt;,&lt;/span&gt; &lt;span style=&quot;color: #a9a9aa;&quot;&gt;//&lt;/span&gt;&lt;span style=&quot;color: #a9a9aa;font-style: italic;&quot;&gt; load operation register&lt;/span&gt;&lt;/div&gt;&lt;div&gt;            &lt;span style=&quot;color: #ff6d12;&quot;&gt;2&lt;/span&gt;: MI_PC_OUT &lt;span style=&quot;color: #00bec4;&quot;&gt;|&lt;/span&gt; MI_RAM_OUT &lt;span style=&quot;color: #00bec4;&quot;&gt;|&lt;/span&gt; MI_MAR_L_IN &lt;span style=&quot;color: #00bec4;&quot;&gt;|&lt;/span&gt; MI_PC_INC &lt;span style=&quot;color: #00bec4;&quot;&gt;|&lt;/span&gt; MI_STEP_INC&lt;span style=&quot;color: #a0a1a7;&quot;&gt;,&lt;/span&gt;&lt;/div&gt;&lt;div&gt;            &lt;span style=&quot;color: #ff6d12;&quot;&gt;3&lt;/span&gt;: MI_PC_OUT &lt;span style=&quot;color: #00bec4;&quot;&gt;|&lt;/span&gt; MI_RAM_OUT &lt;span style=&quot;color: #00bec4;&quot;&gt;|&lt;/span&gt; MI_MAR_H_IN &lt;span style=&quot;color: #00bec4;&quot;&gt;|&lt;/span&gt; MI_PC_INC &lt;span style=&quot;color: #00bec4;&quot;&gt;|&lt;/span&gt; MI_STEP_INC&lt;span style=&quot;color: #a0a1a7;&quot;&gt;,&lt;/span&gt;&lt;/div&gt;&lt;div&gt;            &lt;span style=&quot;color: #ff6d12;&quot;&gt;4&lt;/span&gt;: MI_MAR_OUT &lt;span style=&quot;color: #00bec4;&quot;&gt;|&lt;/span&gt; MI_RAM_OUT &lt;span style=&quot;color: #00bec4;&quot;&gt;|&lt;/span&gt; MI_REG_OPERAND_1_IN &lt;span style=&quot;color: #00bec4;&quot;&gt;|&lt;/span&gt; MI_STEP_CLR&lt;span style=&quot;color: #a0a1a7;&quot;&gt;,&lt;/span&gt;&lt;/div&gt;&lt;div&gt;        }&lt;span style=&quot;color: #a0a1a7;&quot;&gt;,&lt;/span&gt;&lt;/div&gt;&lt;div&gt;        &lt;span style=&quot;color: #cd6069;&quot;&gt;instruction&lt;/span&gt;&lt;span style=&quot;font-weight: bold;&quot;&gt;.&lt;/span&gt;&lt;span style=&quot;color: #cd6069;&quot;&gt;INST_MOV_REG_MEM&lt;/span&gt;: {&lt;/div&gt;&lt;div&gt;            &lt;span style=&quot;color: #ff6d12;&quot;&gt;0&lt;/span&gt;: MI_PC_OUT &lt;span style=&quot;color: #00bec4;&quot;&gt;|&lt;/span&gt; MI_RAM_OUT &lt;span style=&quot;color: #00bec4;&quot;&gt;|&lt;/span&gt; MI_INST_REG_IN &lt;span style=&quot;color: #00bec4;&quot;&gt;|&lt;/span&gt; MI_PC_INC &lt;span style=&quot;color: #00bec4;&quot;&gt;|&lt;/span&gt; MI_STEP_INC&lt;span style=&quot;color: #a0a1a7;&quot;&gt;,&lt;/span&gt;    &lt;span style=&quot;color: #a9a9aa;&quot;&gt;//&lt;/span&gt;&lt;span style=&quot;color: #a9a9aa;font-style: italic;&quot;&gt; fetch next instruction&lt;/span&gt;&lt;/div&gt;&lt;div&gt;            &lt;span style=&quot;color: #ff6d12;&quot;&gt;1&lt;/span&gt;: MI_PC_OUT &lt;span style=&quot;color: #00bec4;&quot;&gt;|&lt;/span&gt; MI_RAM_OUT &lt;span style=&quot;color: #00bec4;&quot;&gt;|&lt;/span&gt; MI_OPERAND_REG_IN &lt;span style=&quot;color: #00bec4;&quot;&gt;|&lt;/span&gt; MI_PC_INC &lt;span style=&quot;color: #00bec4;&quot;&gt;|&lt;/span&gt; MI_STEP_INC&lt;span style=&quot;color: #a0a1a7;&quot;&gt;,&lt;/span&gt; &lt;span style=&quot;color: #a9a9aa;&quot;&gt;//&lt;/span&gt;&lt;span style=&quot;color: #a9a9aa;font-style: italic;&quot;&gt; load operation register&lt;/span&gt;&lt;/div&gt;&lt;div&gt;            &lt;span style=&quot;color: #ff6d12;&quot;&gt;2&lt;/span&gt;: MI_PC_OUT &lt;span style=&quot;color: #00bec4;&quot;&gt;|&lt;/span&gt; MI_RAM_OUT &lt;span style=&quot;color: #00bec4;&quot;&gt;|&lt;/span&gt; MI_MAR_L_IN &lt;span style=&quot;color: #00bec4;&quot;&gt;|&lt;/span&gt; MI_PC_INC &lt;span style=&quot;color: #00bec4;&quot;&gt;|&lt;/span&gt; MI_STEP_INC&lt;span style=&quot;color: #a0a1a7;&quot;&gt;,&lt;/span&gt;&lt;/div&gt;&lt;div&gt;            &lt;span style=&quot;color: #ff6d12;&quot;&gt;3&lt;/span&gt;: MI_PC_OUT &lt;span style=&quot;color: #00bec4;&quot;&gt;|&lt;/span&gt; MI_RAM_OUT &lt;span style=&quot;color: #00bec4;&quot;&gt;|&lt;/span&gt; MI_MAR_H_IN &lt;span style=&quot;color: #00bec4;&quot;&gt;|&lt;/span&gt; MI_PC_INC &lt;span style=&quot;color: #00bec4;&quot;&gt;|&lt;/span&gt; MI_STEP_INC&lt;span style=&quot;color: #a0a1a7;&quot;&gt;,&lt;/span&gt;&lt;/div&gt;&lt;div&gt;            &lt;span style=&quot;color: #ff6d12;&quot;&gt;4&lt;/span&gt;: MI_REG_OPERAND_1_OUT_Y &lt;span style=&quot;color: #00bec4;&quot;&gt;|&lt;/span&gt; MI_BRIDGE_ENABLE &lt;span style=&quot;color: #00bec4;&quot;&gt;|&lt;/span&gt; MI_BRIDGE_DIR_OUT &lt;span style=&quot;color: #00bec4;&quot;&gt;|&lt;/span&gt; MI_MAR_OUT &lt;span style=&quot;color: #00bec4;&quot;&gt;|&lt;/span&gt; MI_RAM_IN &lt;span style=&quot;color: #00bec4;&quot;&gt;|&lt;/span&gt; MI_STEP_CLR&lt;span style=&quot;color: #a0a1a7;&quot;&gt;,&lt;/span&gt;&lt;/div&gt;&lt;div&gt;        }&lt;span style=&quot;color: #a0a1a7;&quot;&gt;,&lt;/span&gt;&lt;/div&gt;&lt;div&gt;        &lt;span style=&quot;color: #cd6069;&quot;&gt;instruction&lt;/span&gt;&lt;span style=&quot;font-weight: bold;&quot;&gt;.&lt;/span&gt;&lt;span style=&quot;color: #cd6069;&quot;&gt;INST_ADD_RR&lt;/span&gt;: {&lt;/div&gt;&lt;div&gt;            &lt;span style=&quot;color: #ff6d12;&quot;&gt;0&lt;/span&gt;: MI_PC_OUT &lt;span style=&quot;color: #00bec4;&quot;&gt;|&lt;/span&gt; MI_RAM_OUT &lt;span style=&quot;color: #00bec4;&quot;&gt;|&lt;/span&gt; MI_INST_REG_IN &lt;span style=&quot;color: #00bec4;&quot;&gt;|&lt;/span&gt; MI_PC_INC &lt;span style=&quot;color: #00bec4;&quot;&gt;|&lt;/span&gt; MI_STEP_INC&lt;span style=&quot;color: #a0a1a7;&quot;&gt;,&lt;/span&gt;    &lt;span style=&quot;color: #a9a9aa;&quot;&gt;//&lt;/span&gt;&lt;span style=&quot;color: #a9a9aa;font-style: italic;&quot;&gt; fetch next instruction&lt;/span&gt;&lt;/div&gt;&lt;div&gt;            &lt;span style=&quot;color: #ff6d12;&quot;&gt;1&lt;/span&gt;: MI_PC_OUT &lt;span style=&quot;color: #00bec4;&quot;&gt;|&lt;/span&gt; MI_RAM_OUT &lt;span style=&quot;color: #00bec4;&quot;&gt;|&lt;/span&gt; MI_OPERAND_REG_IN &lt;span style=&quot;color: #00bec4;&quot;&gt;|&lt;/span&gt; MI_PC_INC &lt;span style=&quot;color: #00bec4;&quot;&gt;|&lt;/span&gt; MI_STEP_INC&lt;span style=&quot;color: #a0a1a7;&quot;&gt;,&lt;/span&gt; &lt;span style=&quot;color: #a9a9aa;&quot;&gt;//&lt;/span&gt;&lt;span style=&quot;color: #a9a9aa;font-style: italic;&quot;&gt; load operation register&lt;/span&gt;&lt;/div&gt;&lt;div&gt;            &lt;span style=&quot;color: #ff6d12;&quot;&gt;2&lt;/span&gt;: MI_REG_OPERAND_1_OUT_X &lt;span style=&quot;color: #00bec4;&quot;&gt;|&lt;/span&gt; MI_REG_OPERAND_2_OUT_Y &lt;span style=&quot;color: #00bec4;&quot;&gt;|&lt;/span&gt; MI_ALU_ENABLE &lt;span style=&quot;color: #00bec4;&quot;&gt;|&lt;/span&gt; MI_ALU_ADD &lt;span style=&quot;color: #00bec4;&quot;&gt;|&lt;/span&gt; MI_REG_OPERAND_1_IN &lt;span style=&quot;color: #00bec4;&quot;&gt;|&lt;/span&gt; MI_STEP_CLR&lt;span style=&quot;color: #a0a1a7;&quot;&gt;,&lt;/span&gt;&lt;/div&gt;&lt;div&gt;        }&lt;span style=&quot;color: #a0a1a7;&quot;&gt;,&lt;/span&gt;&lt;/div&gt;&lt;div&gt;        &lt;span style=&quot;color: #cd6069;&quot;&gt;instruction&lt;/span&gt;&lt;span style=&quot;font-weight: bold;&quot;&gt;.&lt;/span&gt;&lt;span style=&quot;color: #cd6069;&quot;&gt;INST_SUB_RR&lt;/span&gt;: {&lt;/div&gt;&lt;div&gt;            &lt;span style=&quot;color: #ff6d12;&quot;&gt;0&lt;/span&gt;: MI_PC_OUT &lt;span style=&quot;color: #00bec4;&quot;&gt;|&lt;/span&gt; MI_RAM_OUT &lt;span style=&quot;color: #00bec4;&quot;&gt;|&lt;/span&gt; MI_INST_REG_IN &lt;span style=&quot;color: #00bec4;&quot;&gt;|&lt;/span&gt; MI_PC_INC &lt;span style=&quot;color: #00bec4;&quot;&gt;|&lt;/span&gt; MI_STEP_INC&lt;span style=&quot;color: #a0a1a7;&quot;&gt;,&lt;/span&gt;    &lt;span style=&quot;color: #a9a9aa;&quot;&gt;//&lt;/span&gt;&lt;span style=&quot;color: #a9a9aa;font-style: italic;&quot;&gt; fetch next instruction&lt;/span&gt;&lt;/div&gt;&lt;div&gt;            &lt;span style=&quot;color: #ff6d12;&quot;&gt;1&lt;/span&gt;: MI_PC_OUT &lt;span style=&quot;color: #00bec4;&quot;&gt;|&lt;/span&gt; MI_RAM_OUT &lt;span style=&quot;color: #00bec4;&quot;&gt;|&lt;/span&gt; MI_OPERAND_REG_IN &lt;span style=&quot;color: #00bec4;&quot;&gt;|&lt;/span&gt; MI_PC_INC &lt;span style=&quot;color: #00bec4;&quot;&gt;|&lt;/span&gt; MI_STEP_INC&lt;span style=&quot;color: #a0a1a7;&quot;&gt;,&lt;/span&gt; &lt;span style=&quot;color: #a9a9aa;&quot;&gt;//&lt;/span&gt;&lt;span style=&quot;color: #a9a9aa;font-style: italic;&quot;&gt; load operation register&lt;/span&gt;&lt;/div&gt;&lt;div&gt;            &lt;span style=&quot;color: #ff6d12;&quot;&gt;2&lt;/span&gt;: MI_REG_OPERAND_1_OUT_X &lt;span style=&quot;color: #00bec4;&quot;&gt;|&lt;/span&gt; MI_REG_OPERAND_2_OUT_Y &lt;span style=&quot;color: #00bec4;&quot;&gt;|&lt;/span&gt; MI_ALU_ENABLE &lt;span style=&quot;color: #00bec4;&quot;&gt;|&lt;/span&gt; MI_ALU_SUB &lt;span style=&quot;color: #00bec4;&quot;&gt;|&lt;/span&gt; MI_REG_OPERAND_1_IN &lt;span style=&quot;color: #00bec4;&quot;&gt;|&lt;/span&gt; MI_STEP_CLR&lt;span style=&quot;color: #a0a1a7;&quot;&gt;,&lt;/span&gt;&lt;/div&gt;&lt;div&gt;        }&lt;span style=&quot;color: #a0a1a7;&quot;&gt;,&lt;/span&gt;&lt;/div&gt;&lt;div&gt;        &lt;span style=&quot;color: #cd6069;&quot;&gt;instruction&lt;/span&gt;&lt;span style=&quot;font-weight: bold;&quot;&gt;.&lt;/span&gt;&lt;span style=&quot;color: #cd6069;&quot;&gt;INST_CMP_RR&lt;/span&gt;: {&lt;/div&gt;&lt;div&gt;            &lt;span style=&quot;color: #ff6d12;&quot;&gt;0&lt;/span&gt;: MI_PC_OUT &lt;span style=&quot;color: #00bec4;&quot;&gt;|&lt;/span&gt; MI_RAM_OUT &lt;span style=&quot;color: #00bec4;&quot;&gt;|&lt;/span&gt; MI_INST_REG_IN &lt;span style=&quot;color: #00bec4;&quot;&gt;|&lt;/span&gt; MI_PC_INC &lt;span style=&quot;color: #00bec4;&quot;&gt;|&lt;/span&gt; MI_STEP_INC&lt;span style=&quot;color: #a0a1a7;&quot;&gt;,&lt;/span&gt;    &lt;span style=&quot;color: #a9a9aa;&quot;&gt;//&lt;/span&gt;&lt;span style=&quot;color: #a9a9aa;font-style: italic;&quot;&gt; fetch next instruction&lt;/span&gt;&lt;/div&gt;&lt;div&gt;            &lt;span style=&quot;color: #ff6d12;&quot;&gt;1&lt;/span&gt;: MI_PC_OUT &lt;span style=&quot;color: #00bec4;&quot;&gt;|&lt;/span&gt; MI_RAM_OUT &lt;span style=&quot;color: #00bec4;&quot;&gt;|&lt;/span&gt; MI_OPERAND_REG_IN &lt;span style=&quot;color: #00bec4;&quot;&gt;|&lt;/span&gt; MI_PC_INC &lt;span style=&quot;color: #00bec4;&quot;&gt;|&lt;/span&gt; MI_STEP_INC&lt;span style=&quot;color: #a0a1a7;&quot;&gt;,&lt;/span&gt; &lt;span style=&quot;color: #a9a9aa;&quot;&gt;//&lt;/span&gt;&lt;span style=&quot;color: #a9a9aa;font-style: italic;&quot;&gt; load operation register&lt;/span&gt;&lt;/div&gt;&lt;div&gt;            &lt;span style=&quot;color: #ff6d12;&quot;&gt;2&lt;/span&gt;: MI_REG_OPERAND_1_OUT_X &lt;span style=&quot;color: #00bec4;&quot;&gt;|&lt;/span&gt; MI_REG_OPERAND_2_OUT_Y &lt;span style=&quot;color: #00bec4;&quot;&gt;|&lt;/span&gt; MI_ALU_ENABLE &lt;span style=&quot;color: #00bec4;&quot;&gt;|&lt;/span&gt; MI_ALU_CMP &lt;span style=&quot;color: #00bec4;&quot;&gt;|&lt;/span&gt; MI_STEP_CLR&lt;span style=&quot;color: #a0a1a7;&quot;&gt;,&lt;/span&gt;&lt;/div&gt;&lt;div&gt;        }&lt;span style=&quot;color: #a0a1a7;&quot;&gt;,&lt;/span&gt;&lt;/div&gt;&lt;div&gt;        &lt;span style=&quot;color: #cd6069;&quot;&gt;instruction&lt;/span&gt;&lt;span style=&quot;font-weight: bold;&quot;&gt;.&lt;/span&gt;&lt;span style=&quot;color: #cd6069;&quot;&gt;INST_CMP_INM&lt;/span&gt;: {&lt;/div&gt;&lt;div&gt;            &lt;span style=&quot;color: #ff6d12;&quot;&gt;0&lt;/span&gt;: MI_PC_OUT &lt;span style=&quot;color: #00bec4;&quot;&gt;|&lt;/span&gt; MI_RAM_OUT &lt;span style=&quot;color: #00bec4;&quot;&gt;|&lt;/span&gt; MI_INST_REG_IN &lt;span style=&quot;color: #00bec4;&quot;&gt;|&lt;/span&gt; MI_PC_INC &lt;span style=&quot;color: #00bec4;&quot;&gt;|&lt;/span&gt; MI_STEP_INC&lt;span style=&quot;color: #a0a1a7;&quot;&gt;,&lt;/span&gt;    &lt;span style=&quot;color: #a9a9aa;&quot;&gt;//&lt;/span&gt;&lt;span style=&quot;color: #a9a9aa;font-style: italic;&quot;&gt; fetch next instruction&lt;/span&gt;&lt;/div&gt;&lt;div&gt;            &lt;span style=&quot;color: #ff6d12;&quot;&gt;1&lt;/span&gt;: MI_PC_OUT &lt;span style=&quot;color: #00bec4;&quot;&gt;|&lt;/span&gt; MI_RAM_OUT &lt;span style=&quot;color: #00bec4;&quot;&gt;|&lt;/span&gt; MI_OPERAND_REG_IN &lt;span style=&quot;color: #00bec4;&quot;&gt;|&lt;/span&gt; MI_PC_INC &lt;span style=&quot;color: #00bec4;&quot;&gt;|&lt;/span&gt; MI_STEP_INC&lt;span style=&quot;color: #a0a1a7;&quot;&gt;,&lt;/span&gt; &lt;span style=&quot;color: #a9a9aa;&quot;&gt;//&lt;/span&gt;&lt;span style=&quot;color: #a9a9aa;font-style: italic;&quot;&gt; load operation register&lt;/span&gt;&lt;/div&gt;&lt;div&gt;            &lt;span style=&quot;color: #ff6d12;&quot;&gt;2&lt;/span&gt;: MI_PC_OUT &lt;span style=&quot;color: #00bec4;&quot;&gt;|&lt;/span&gt; MI_RAM_OUT &lt;span style=&quot;color: #00bec4;&quot;&gt;|&lt;/span&gt; MI_BRIDGE_ENABLE &lt;span style=&quot;color: #00bec4;&quot;&gt;|&lt;/span&gt; MI_BRIDGE_DIR_IN &lt;span style=&quot;color: #00bec4;&quot;&gt;|&lt;/span&gt; MI_REG_OPERAND_1_OUT_X &lt;span style=&quot;color: #00bec4;&quot;&gt;|&lt;/span&gt; MI_ALU_ENABLE &lt;span style=&quot;color: #00bec4;&quot;&gt;|&lt;/span&gt; MI_ALU_CMP &lt;span style=&quot;color: #00bec4;&quot;&gt;|&lt;/span&gt; MI_PC_INC &lt;span style=&quot;color: #00bec4;&quot;&gt;|&lt;/span&gt; MI_STEP_CLR&lt;span style=&quot;color: #a0a1a7;&quot;&gt;,&lt;/span&gt;&lt;/div&gt;&lt;div&gt;        }&lt;span style=&quot;color: #a0a1a7;&quot;&gt;,&lt;/span&gt;&lt;/div&gt;&lt;div&gt;        &lt;span style=&quot;color: #cd6069;&quot;&gt;instruction&lt;/span&gt;&lt;span style=&quot;font-weight: bold;&quot;&gt;.&lt;/span&gt;&lt;span style=&quot;color: #cd6069;&quot;&gt;INST_NOP&lt;/span&gt;: {&lt;/div&gt;&lt;div&gt;            &lt;span style=&quot;color: #ff6d12;&quot;&gt;0&lt;/span&gt;: MI_PC_OUT &lt;span style=&quot;color: #00bec4;&quot;&gt;|&lt;/span&gt; MI_RAM_OUT &lt;span style=&quot;color: #00bec4;&quot;&gt;|&lt;/span&gt; MI_INST_REG_IN &lt;span style=&quot;color: #00bec4;&quot;&gt;|&lt;/span&gt; MI_PC_INC &lt;span style=&quot;color: #00bec4;&quot;&gt;|&lt;/span&gt; MI_STEP_INC&lt;span style=&quot;color: #a0a1a7;&quot;&gt;,&lt;/span&gt; &lt;span style=&quot;color: #a9a9aa;&quot;&gt;//&lt;/span&gt;&lt;span style=&quot;color: #a9a9aa;font-style: italic;&quot;&gt; fetch next instruction&lt;/span&gt;&lt;/div&gt;&lt;div&gt;            &lt;span style=&quot;color: #ff6d12;&quot;&gt;1&lt;/span&gt;: MI_STEP_CLR&lt;span style=&quot;color: #a0a1a7;&quot;&gt;,&lt;/span&gt;&lt;/div&gt;&lt;div&gt;        }&lt;span style=&quot;color: #a0a1a7;&quot;&gt;,&lt;/span&gt;&lt;/div&gt;&lt;/div&gt;&lt;/div&gt;" style="text;whiteSpace=wrap;html=1;" parent="1" vertex="1">
                    <mxGeometry x="2005" y="-607" width="1192" height="2646" as="geometry"/>
                </mxCell>
                <mxCell id="170" style="edgeStyle=none;html=1;exitX=0.5;exitY=1;exitDx=0;exitDy=0;entryX=0.5;entryY=0;entryDx=0;entryDy=0;startArrow=none;startFill=0;endArrow=classicThin;endFill=1;fillColor=#f8cecc;strokeColor=#b85450;strokeWidth=2;" edge="1" parent="1" source="177" target="194">
                    <mxGeometry relative="1" as="geometry"/>
                </mxCell>
                <mxCell id="171" style="edgeStyle=none;html=1;exitX=0;exitY=0.5;exitDx=0;exitDy=0;startArrow=none;startFill=0;endArrow=none;endFill=0;fillColor=#d5e8d4;strokeColor=#82b366;strokeWidth=2;rounded=0;" edge="1" parent="1" source="177">
                    <mxGeometry relative="1" as="geometry">
                        <mxPoint x="80" y="1090" as="targetPoint"/>
                        <Array as="points">
                            <mxPoint x="81" y="1510"/>
                        </Array>
                    </mxGeometry>
                </mxCell>
                <mxCell id="172" value="bus X (8)" style="edgeLabel;html=1;align=center;verticalAlign=middle;resizable=0;points=[];" vertex="1" connectable="0" parent="171">
                    <mxGeometry x="-0.4997" y="1" relative="1" as="geometry">
                        <mxPoint x="-2" y="20" as="offset"/>
                    </mxGeometry>
                </mxCell>
                <mxCell id="173" style="edgeStyle=none;html=1;exitX=1;exitY=0.5;exitDx=0;exitDy=0;startArrow=none;startFill=0;endArrow=none;endFill=0;fillColor=#dae8fc;strokeColor=#6c8ebf;rounded=0;strokeWidth=2;" edge="1" parent="1" source="177">
                    <mxGeometry relative="1" as="geometry">
                        <mxPoint x="320" y="1000" as="targetPoint"/>
                        <Array as="points">
                            <mxPoint x="321" y="1510"/>
                        </Array>
                    </mxGeometry>
                </mxCell>
                <mxCell id="174" value="bus Y (8)" style="edgeLabel;html=1;align=center;verticalAlign=middle;resizable=0;points=[];" vertex="1" connectable="0" parent="173">
                    <mxGeometry x="-0.6033" relative="1" as="geometry">
                        <mxPoint y="-25" as="offset"/>
                    </mxGeometry>
                </mxCell>
                <mxCell id="175" style="edgeStyle=none;rounded=0;html=1;exitX=0.5;exitY=1;exitDx=0;exitDy=0;entryX=0.5;entryY=0;entryDx=0;entryDy=0;startArrow=none;startFill=0;endArrow=classicThin;endFill=1;fillColor=#f8cecc;strokeColor=#b85450;strokeWidth=2;" edge="1" parent="1" source="177" target="215">
                    <mxGeometry relative="1" as="geometry">
                        <Array as="points">
                            <mxPoint x="191" y="1570"/>
                            <mxPoint x="321" y="1570"/>
                        </Array>
                    </mxGeometry>
                </mxCell>
                <mxCell id="176" value="store" style="edgeLabel;html=1;align=center;verticalAlign=middle;resizable=0;points=[];" vertex="1" connectable="0" parent="175">
                    <mxGeometry x="0.6476" y="2" relative="1" as="geometry">
                        <mxPoint as="offset"/>
                    </mxGeometry>
                </mxCell>
                <mxCell id="177" value="ALU" style="rounded=0;whiteSpace=wrap;html=1;" vertex="1" parent="1">
                    <mxGeometry x="131" y="1470" width="120" height="80" as="geometry"/>
                </mxCell>
                <mxCell id="178" style="edgeStyle=none;html=1;exitX=0;exitY=0.5;exitDx=0;exitDy=0;startArrow=none;startFill=0;endArrow=classicThin;endFill=1;fillColor=#d5e8d4;strokeColor=#82b366;strokeWidth=2;" edge="1" parent="1" source="181">
                    <mxGeometry relative="1" as="geometry">
                        <mxPoint x="81" y="1250.2608695652175" as="targetPoint"/>
                    </mxGeometry>
                </mxCell>
                <mxCell id="179" style="edgeStyle=none;html=1;exitX=1;exitY=0.5;exitDx=0;exitDy=0;startArrow=none;startFill=0;endArrow=classicThin;endFill=1;fillColor=#dae8fc;strokeColor=#6c8ebf;strokeWidth=2;" edge="1" parent="1" source="181">
                    <mxGeometry relative="1" as="geometry">
                        <mxPoint x="321" y="1250.2608695652175" as="targetPoint"/>
                    </mxGeometry>
                </mxCell>
                <mxCell id="180" style="edgeStyle=none;rounded=0;html=1;exitX=0.5;exitY=0;exitDx=0;exitDy=0;startArrow=classic;startFill=1;endArrow=none;endFill=0;fillColor=#fff2cc;strokeColor=#d6b656;strokeWidth=2;" edge="1" parent="1" source="181">
                    <mxGeometry relative="1" as="geometry">
                        <mxPoint x="441" y="1210" as="targetPoint"/>
                        <Array as="points">
                            <mxPoint x="201" y="1210"/>
                        </Array>
                    </mxGeometry>
                </mxCell>
                <mxCell id="181" value="C" style="rounded=0;whiteSpace=wrap;html=1;" vertex="1" parent="1">
                    <mxGeometry x="161" y="1230" width="80" height="40" as="geometry"/>
                </mxCell>
                <mxCell id="182" style="edgeStyle=none;html=1;exitX=0;exitY=0.5;exitDx=0;exitDy=0;startArrow=none;startFill=0;endArrow=classicThin;endFill=1;fillColor=#d5e8d4;strokeColor=#82b366;strokeWidth=2;" edge="1" parent="1" source="185">
                    <mxGeometry relative="1" as="geometry">
                        <mxPoint x="81" y="1170.2608695652175" as="targetPoint"/>
                    </mxGeometry>
                </mxCell>
                <mxCell id="183" style="edgeStyle=none;html=1;exitX=1;exitY=0.5;exitDx=0;exitDy=0;startArrow=none;startFill=0;endArrow=classicThin;endFill=1;fillColor=#dae8fc;strokeColor=#6c8ebf;strokeWidth=2;" edge="1" parent="1" source="185">
                    <mxGeometry relative="1" as="geometry">
                        <mxPoint x="321" y="1170.2608695652175" as="targetPoint"/>
                    </mxGeometry>
                </mxCell>
                <mxCell id="184" style="edgeStyle=none;rounded=0;html=1;exitX=0.5;exitY=0;exitDx=0;exitDy=0;startArrow=classic;startFill=1;endArrow=none;endFill=0;fillColor=#fff2cc;strokeColor=#d6b656;strokeWidth=2;" edge="1" parent="1" source="185">
                    <mxGeometry relative="1" as="geometry">
                        <mxPoint x="441" y="1130" as="targetPoint"/>
                        <Array as="points">
                            <mxPoint x="201" y="1130"/>
                        </Array>
                    </mxGeometry>
                </mxCell>
                <mxCell id="185" value="B" style="rounded=0;whiteSpace=wrap;html=1;" vertex="1" parent="1">
                    <mxGeometry x="161" y="1150" width="80" height="40" as="geometry"/>
                </mxCell>
                <mxCell id="186" style="edgeStyle=none;html=1;exitX=0;exitY=0.5;exitDx=0;exitDy=0;startArrow=none;startFill=0;endArrow=classicThin;endFill=1;fillColor=#d5e8d4;strokeColor=#82b366;strokeWidth=2;" edge="1" parent="1" source="189">
                    <mxGeometry relative="1" as="geometry">
                        <mxPoint x="81" y="1090.2608695652173" as="targetPoint"/>
                    </mxGeometry>
                </mxCell>
                <mxCell id="187" style="edgeStyle=none;html=1;exitX=1;exitY=0.5;exitDx=0;exitDy=0;startArrow=none;startFill=0;endArrow=classicThin;endFill=1;fillColor=#dae8fc;strokeColor=#6c8ebf;strokeWidth=2;" edge="1" parent="1" source="189">
                    <mxGeometry relative="1" as="geometry">
                        <mxPoint x="321" y="1090.2608695652173" as="targetPoint"/>
                    </mxGeometry>
                </mxCell>
                <mxCell id="188" style="edgeStyle=none;rounded=0;html=1;exitX=0.5;exitY=0;exitDx=0;exitDy=0;startArrow=classic;startFill=1;endArrow=none;endFill=0;fillColor=#fff2cc;strokeColor=#d6b656;strokeWidth=2;" edge="1" parent="1" source="189">
                    <mxGeometry relative="1" as="geometry">
                        <mxPoint x="441" y="1050" as="targetPoint"/>
                        <Array as="points">
                            <mxPoint x="201" y="1050"/>
                        </Array>
                    </mxGeometry>
                </mxCell>
                <mxCell id="189" value="A" style="rounded=0;whiteSpace=wrap;html=1;" vertex="1" parent="1">
                    <mxGeometry x="161" y="1070" width="80" height="40" as="geometry"/>
                </mxCell>
                <mxCell id="190" style="edgeStyle=none;html=1;exitX=0;exitY=0.5;exitDx=0;exitDy=0;startArrow=classicThin;startFill=1;endArrow=classicThin;endFill=1;fillColor=#dae8fc;strokeColor=#6c8ebf;entryX=1;entryY=0.5;entryDx=0;entryDy=0;strokeWidth=2;" edge="1" parent="1" source="192" target="177">
                    <mxGeometry relative="1" as="geometry">
                        <mxPoint x="321" y="1410" as="targetPoint"/>
                    </mxGeometry>
                </mxCell>
                <mxCell id="191" style="edgeStyle=none;html=1;exitX=1;exitY=0.5;exitDx=0;exitDy=0;startArrow=classicThin;startFill=1;endArrow=none;endFill=0;fillColor=#fff2cc;strokeColor=#d6b656;strokeWidth=2;" edge="1" parent="1" source="192">
                    <mxGeometry relative="1" as="geometry">
                        <mxPoint x="441" y="1510" as="targetPoint"/>
                    </mxGeometry>
                </mxCell>
                <mxCell id="192" value="bridge" style="rounded=0;whiteSpace=wrap;html=1;dashed=1;horizontal=0;" vertex="1" parent="1">
                    <mxGeometry x="361" y="1470" width="40" height="80" as="geometry"/>
                </mxCell>
                <mxCell id="193" style="edgeStyle=none;rounded=0;html=1;exitX=0.5;exitY=1;exitDx=0;exitDy=0;startArrow=none;startFill=0;endArrow=classicThin;endFill=1;fillColor=#fff2cc;strokeColor=#d6b656;strokeWidth=2;" edge="1" parent="1" source="194">
                    <mxGeometry relative="1" as="geometry">
                        <mxPoint x="441" y="1710" as="targetPoint"/>
                        <Array as="points">
                            <mxPoint x="191" y="1710"/>
                        </Array>
                    </mxGeometry>
                </mxCell>
                <mxCell id="194" value="" style="rounded=0;whiteSpace=wrap;html=1;dashed=1;" vertex="1" parent="1">
                    <mxGeometry x="151" y="1630" width="80" height="40" as="geometry"/>
                </mxCell>
                <mxCell id="195" style="edgeStyle=none;html=1;exitX=0;exitY=0.5;exitDx=0;exitDy=0;startArrow=classicThin;startFill=1;endArrow=classicThin;endFill=1;fillColor=#fff2cc;strokeColor=#d6b656;strokeWidth=2;" edge="1" parent="1" source="197">
                    <mxGeometry relative="1" as="geometry">
                        <mxPoint x="441" y="1370" as="targetPoint"/>
                    </mxGeometry>
                </mxCell>
                <mxCell id="196" style="edgeStyle=none;rounded=0;html=1;exitX=1;exitY=0.5;exitDx=0;exitDy=0;strokeWidth=2;startArrow=classicThin;startFill=1;endArrow=none;endFill=0;fillColor=#e1d5e7;strokeColor=#9673a6;" edge="1" parent="1" source="197">
                    <mxGeometry relative="1" as="geometry">
                        <mxPoint x="721" y="1369.7692307692305" as="targetPoint"/>
                    </mxGeometry>
                </mxCell>
                <mxCell id="197" value="RAM" style="rounded=0;whiteSpace=wrap;html=1;" vertex="1" parent="1">
                    <mxGeometry x="521" y="1330" width="120" height="80" as="geometry"/>
                </mxCell>
                <mxCell id="204" style="edgeStyle=none;html=1;exitX=0;exitY=0.5;exitDx=0;exitDy=0;startArrow=none;startFill=0;endArrow=classicThin;endFill=1;fillColor=#d5e8d4;strokeColor=#82b366;strokeWidth=2;" edge="1" parent="1" source="206">
                    <mxGeometry relative="1" as="geometry">
                        <mxPoint x="81" y="1382.2608695652175" as="targetPoint"/>
                    </mxGeometry>
                </mxCell>
                <mxCell id="205" style="edgeStyle=none;html=1;exitX=1;exitY=0.5;exitDx=0;exitDy=0;startArrow=none;startFill=0;endArrow=classicThin;endFill=1;fillColor=#dae8fc;strokeColor=#6c8ebf;strokeWidth=2;" edge="1" parent="1" source="206">
                    <mxGeometry relative="1" as="geometry">
                        <mxPoint x="321" y="1382.2608695652175" as="targetPoint"/>
                    </mxGeometry>
                </mxCell>
                <mxCell id="206" value="1" style="rounded=0;whiteSpace=wrap;html=1;" vertex="1" parent="1">
                    <mxGeometry x="161" y="1362" width="80" height="40" as="geometry"/>
                </mxCell>
                <mxCell id="212" value="" style="endArrow=none;html=1;rounded=0;fillColor=#fff2cc;strokeColor=#d6b656;strokeWidth=2;" edge="1" parent="1">
                    <mxGeometry width="50" height="50" relative="1" as="geometry">
                        <mxPoint x="441" y="1710" as="sourcePoint"/>
                        <mxPoint x="440" y="960" as="targetPoint"/>
                    </mxGeometry>
                </mxCell>
                <mxCell id="213" value="data bus (8)" style="edgeLabel;html=1;align=center;verticalAlign=middle;resizable=0;points=[];" vertex="1" connectable="0" parent="212">
                    <mxGeometry x="-0.7116" y="-1" relative="1" as="geometry">
                        <mxPoint x="1" y="-30" as="offset"/>
                    </mxGeometry>
                </mxCell>
                <mxCell id="214" style="edgeStyle=none;rounded=1;html=1;exitX=0.5;exitY=1;exitDx=0;exitDy=0;startArrow=none;startFill=0;endArrow=classicThin;endFill=1;fillColor=#fff2cc;strokeColor=#d6b656;strokeWidth=2;" edge="1" parent="1" source="215">
                    <mxGeometry relative="1" as="geometry">
                        <mxPoint x="320.91044776119406" y="1710" as="targetPoint"/>
                    </mxGeometry>
                </mxCell>
                <mxCell id="215" value="STORE" style="rounded=0;whiteSpace=wrap;html=1;" vertex="1" parent="1">
                    <mxGeometry x="281" y="1630" width="80" height="40" as="geometry"/>
                </mxCell>
                <mxCell id="218" value="&lt;p&gt;&lt;font style=&quot;font-size: 12px;&quot;&gt;← DIR_IN&lt;/font&gt;&lt;/p&gt;&lt;p&gt;&lt;span style=&quot;background-color: initial;&quot;&gt;→ DIR_OUT&lt;/span&gt;&lt;/p&gt;" style="text;html=1;align=left;verticalAlign=middle;resizable=0;points=[];autosize=1;strokeColor=none;fillColor=none;" vertex="1" parent="1">
                    <mxGeometry x="361" y="1353" width="86" height="77" as="geometry"/>
                </mxCell>
                <mxCell id="221" style="edgeStyle=none;html=1;exitX=0;exitY=0.5;exitDx=0;exitDy=0;startArrow=none;startFill=0;endArrow=classicThin;endFill=1;fillColor=#d5e8d4;strokeColor=#82b366;strokeWidth=2;" edge="1" parent="1" source="223">
                    <mxGeometry relative="1" as="geometry">
                        <mxPoint x="81" y="1321.2608695652175" as="targetPoint"/>
                    </mxGeometry>
                </mxCell>
                <mxCell id="222" style="edgeStyle=none;html=1;exitX=1;exitY=0.5;exitDx=0;exitDy=0;startArrow=none;startFill=0;endArrow=classicThin;endFill=1;fillColor=#dae8fc;strokeColor=#6c8ebf;strokeWidth=2;" edge="1" parent="1" source="223">
                    <mxGeometry relative="1" as="geometry">
                        <mxPoint x="321" y="1321.2608695652175" as="targetPoint"/>
                    </mxGeometry>
                </mxCell>
                <mxCell id="223" value="D" style="rounded=0;whiteSpace=wrap;html=1;" vertex="1" parent="1">
                    <mxGeometry x="161" y="1301" width="80" height="40" as="geometry"/>
                </mxCell>
                <mxCell id="224" style="edgeStyle=none;rounded=0;html=1;startArrow=classic;startFill=1;endArrow=none;endFill=0;fillColor=#fff2cc;strokeColor=#d6b656;strokeWidth=2;exitX=0.5;exitY=0;exitDx=0;exitDy=0;" edge="1" parent="1" source="223">
                    <mxGeometry relative="1" as="geometry">
                        <mxPoint x="441" y="1281" as="targetPoint"/>
                        <Array as="points">
                            <mxPoint x="201" y="1281"/>
                        </Array>
                        <mxPoint x="199" y="1301" as="sourcePoint"/>
                    </mxGeometry>
                </mxCell>
                <mxCell id="225" value="V3" style="text;html=1;align=center;verticalAlign=middle;resizable=0;points=[];autosize=1;strokeColor=none;fillColor=none;" vertex="1" parent="1">
                    <mxGeometry x="193" y="825" width="33" height="26" as="geometry"/>
                </mxCell>
                <mxCell id="231" style="edgeStyle=none;rounded=0;html=1;exitX=0.5;exitY=0;exitDx=0;exitDy=0;startArrow=classic;startFill=1;endArrow=none;endFill=0;fillColor=#fff2cc;strokeColor=#d6b656;strokeWidth=2;" edge="1" parent="1" source="232">
                    <mxGeometry relative="1" as="geometry">
                        <mxPoint x="440.26" y="1210" as="targetPoint"/>
                        <Array as="points">
                            <mxPoint x="520.26" y="1210"/>
                        </Array>
                    </mxGeometry>
                </mxCell>
                <mxCell id="233" style="edgeStyle=none;rounded=0;html=1;strokeWidth=2;fillColor=#e1d5e7;strokeColor=#9673a6;exitX=0.5;exitY=1;exitDx=0;exitDy=0;" edge="1" parent="1" source="232">
                    <mxGeometry relative="1" as="geometry">
                        <mxPoint x="680.26" y="1280" as="targetPoint"/>
                        <mxPoint x="200.26" y="1290" as="sourcePoint"/>
                        <Array as="points">
                            <mxPoint x="520.26" y="1280"/>
                        </Array>
                    </mxGeometry>
                </mxCell>
                <mxCell id="232" value="PCL" style="rounded=0;whiteSpace=wrap;html=1;" vertex="1" parent="1">
                    <mxGeometry x="480.26" y="1230" width="80" height="40" as="geometry"/>
                </mxCell>
                <mxCell id="236" style="edgeStyle=none;rounded=0;html=1;exitX=0.5;exitY=0;exitDx=0;exitDy=0;startArrow=classic;startFill=1;endArrow=none;endFill=0;fillColor=#fff2cc;strokeColor=#d6b656;strokeWidth=2;" edge="1" parent="1" source="237">
                    <mxGeometry relative="1" as="geometry">
                        <mxPoint x="440" y="1130" as="targetPoint"/>
                        <Array as="points">
                            <mxPoint x="520" y="1130"/>
                        </Array>
                    </mxGeometry>
                </mxCell>
                <mxCell id="238" style="edgeStyle=none;rounded=0;html=1;exitX=0.5;exitY=1;exitDx=0;exitDy=0;strokeWidth=2;fillColor=#e1d5e7;strokeColor=#9673a6;" edge="1" parent="1" source="237">
                    <mxGeometry relative="1" as="geometry">
                        <mxPoint x="680.26" y="1200" as="targetPoint"/>
                        <Array as="points">
                            <mxPoint x="520.26" y="1200"/>
                        </Array>
                    </mxGeometry>
                </mxCell>
                <mxCell id="237" value="PCH" style="rounded=0;whiteSpace=wrap;html=1;" vertex="1" parent="1">
                    <mxGeometry x="480" y="1150" width="80" height="40" as="geometry"/>
                </mxCell>
                <mxCell id="239" value="" style="endArrow=none;html=1;rounded=0;strokeWidth=2;fillColor=#e1d5e7;strokeColor=#9673a6;" edge="1" parent="1">
                    <mxGeometry width="50" height="50" relative="1" as="geometry">
                        <mxPoint x="680.26" y="1280" as="sourcePoint"/>
                        <mxPoint x="680.26" y="1200" as="targetPoint"/>
                    </mxGeometry>
                </mxCell>
                <mxCell id="240" value="" style="endArrow=classic;html=1;rounded=0;strokeWidth=2;fillColor=#e1d5e7;strokeColor=#9673a6;" edge="1" parent="1">
                    <mxGeometry width="50" height="50" relative="1" as="geometry">
                        <mxPoint x="680.26" y="1240" as="sourcePoint"/>
                        <mxPoint x="720.26" y="1240" as="targetPoint"/>
                    </mxGeometry>
                </mxCell>
                <mxCell id="241" value="addr bus (16)" style="edgeLabel;html=1;align=center;verticalAlign=middle;resizable=0;points=[];" vertex="1" connectable="0" parent="1">
                    <mxGeometry x="759.9989047933434" y="1289.9994775285613" as="geometry"/>
                </mxCell>
                <mxCell id="242" style="edgeStyle=none;html=1;exitX=0;exitY=0.5;exitDx=0;exitDy=0;startArrow=none;startFill=0;endArrow=classicThin;endFill=1;fillColor=#dae8fc;strokeColor=#6c8ebf;strokeWidth=2;" edge="1" parent="1" source="245">
                    <mxGeometry relative="1" as="geometry">
                        <mxPoint x="320" y="1090" as="targetPoint"/>
                    </mxGeometry>
                </mxCell>
                <mxCell id="243" style="edgeStyle=none;rounded=0;html=1;exitX=0.5;exitY=0;exitDx=0;exitDy=0;startArrow=classic;startFill=1;endArrow=none;endFill=0;fillColor=#fff2cc;strokeColor=#d6b656;strokeWidth=2;" edge="1" parent="1" source="245">
                    <mxGeometry relative="1" as="geometry">
                        <mxPoint x="440" y="1050" as="targetPoint"/>
                        <Array as="points">
                            <mxPoint x="520" y="1050"/>
                        </Array>
                    </mxGeometry>
                </mxCell>
                <mxCell id="244" style="edgeStyle=none;rounded=0;html=1;strokeWidth=2;fillColor=#e1d5e7;strokeColor=#9673a6;exitX=0.5;exitY=1;exitDx=0;exitDy=0;" edge="1" parent="1" source="245">
                    <mxGeometry relative="1" as="geometry">
                        <mxPoint x="680" y="1120" as="targetPoint"/>
                        <mxPoint x="200" y="1130" as="sourcePoint"/>
                        <Array as="points">
                            <mxPoint x="520" y="1120"/>
                        </Array>
                    </mxGeometry>
                </mxCell>
                <mxCell id="245" value="SPL" style="rounded=0;whiteSpace=wrap;html=1;" vertex="1" parent="1">
                    <mxGeometry x="480" y="1070" width="80" height="40" as="geometry"/>
                </mxCell>
                <mxCell id="246" style="edgeStyle=none;html=1;exitX=0;exitY=0.5;exitDx=0;exitDy=0;startArrow=none;startFill=0;endArrow=classicThin;endFill=1;fillColor=#dae8fc;strokeColor=#6c8ebf;strokeWidth=2;" edge="1" parent="1" source="249">
                    <mxGeometry relative="1" as="geometry">
                        <mxPoint x="320" y="1000" as="targetPoint"/>
                    </mxGeometry>
                </mxCell>
                <mxCell id="247" style="edgeStyle=none;rounded=0;html=1;exitX=0.5;exitY=0;exitDx=0;exitDy=0;startArrow=classic;startFill=1;endArrow=none;endFill=0;fillColor=#fff2cc;strokeColor=#d6b656;strokeWidth=2;" edge="1" parent="1" source="249">
                    <mxGeometry relative="1" as="geometry">
                        <mxPoint x="440" y="960" as="targetPoint"/>
                        <Array as="points">
                            <mxPoint x="520" y="960"/>
                        </Array>
                    </mxGeometry>
                </mxCell>
                <mxCell id="248" style="edgeStyle=none;rounded=0;html=1;exitX=0.5;exitY=1;exitDx=0;exitDy=0;strokeWidth=2;fillColor=#e1d5e7;strokeColor=#9673a6;" edge="1" parent="1" source="249">
                    <mxGeometry relative="1" as="geometry">
                        <mxPoint x="680" y="1040" as="targetPoint"/>
                        <Array as="points">
                            <mxPoint x="520" y="1040"/>
                        </Array>
                    </mxGeometry>
                </mxCell>
                <mxCell id="249" value="SPH" style="rounded=0;whiteSpace=wrap;html=1;" vertex="1" parent="1">
                    <mxGeometry x="480" y="980" width="80" height="40" as="geometry"/>
                </mxCell>
                <mxCell id="250" value="" style="endArrow=none;html=1;rounded=0;strokeWidth=2;fillColor=#e1d5e7;strokeColor=#9673a6;" edge="1" parent="1">
                    <mxGeometry width="50" height="50" relative="1" as="geometry">
                        <mxPoint x="680" y="1120" as="sourcePoint"/>
                        <mxPoint x="680" y="1040" as="targetPoint"/>
                    </mxGeometry>
                </mxCell>
                <mxCell id="251" value="" style="endArrow=classic;html=1;rounded=0;strokeWidth=2;fillColor=#e1d5e7;strokeColor=#9673a6;" edge="1" parent="1">
                    <mxGeometry width="50" height="50" relative="1" as="geometry">
                        <mxPoint x="680" y="1080" as="sourcePoint"/>
                        <mxPoint x="720" y="1080" as="targetPoint"/>
                    </mxGeometry>
                </mxCell>
                <mxCell id="252" value="addr bus (16)" style="edgeLabel;html=1;align=center;verticalAlign=middle;resizable=0;points=[];" vertex="1" connectable="0" parent="1">
                    <mxGeometry x="721.2689047933434" y="1561.2894775285613" as="geometry"/>
                </mxCell>
                <mxCell id="253" style="edgeStyle=none;rounded=0;html=1;exitX=0.5;exitY=0;exitDx=0;exitDy=0;startArrow=classic;startFill=1;endArrow=none;endFill=0;fillColor=#fff2cc;strokeColor=#d6b656;strokeWidth=2;" edge="1" parent="1" source="255">
                    <mxGeometry relative="1" as="geometry">
                        <mxPoint x="441" y="1510" as="targetPoint"/>
                        <Array as="points">
                            <mxPoint x="521" y="1510"/>
                        </Array>
                    </mxGeometry>
                </mxCell>
                <mxCell id="254" style="edgeStyle=none;rounded=0;html=1;strokeWidth=2;fillColor=#e1d5e7;strokeColor=#9673a6;exitX=0.5;exitY=1;exitDx=0;exitDy=0;" edge="1" parent="1" source="255">
                    <mxGeometry relative="1" as="geometry">
                        <mxPoint x="681.0000000000002" y="1580" as="targetPoint"/>
                        <mxPoint x="201" y="1590" as="sourcePoint"/>
                        <Array as="points">
                            <mxPoint x="521" y="1580"/>
                        </Array>
                    </mxGeometry>
                </mxCell>
                <mxCell id="255" value="MARL" style="rounded=0;whiteSpace=wrap;html=1;" vertex="1" parent="1">
                    <mxGeometry x="481" y="1530" width="80" height="40" as="geometry"/>
                </mxCell>
                <mxCell id="256" style="edgeStyle=none;rounded=0;html=1;exitX=0.5;exitY=0;exitDx=0;exitDy=0;startArrow=classic;startFill=1;endArrow=none;endFill=0;fillColor=#fff2cc;strokeColor=#d6b656;strokeWidth=2;" edge="1" parent="1" source="258">
                    <mxGeometry relative="1" as="geometry">
                        <mxPoint x="440.74" y="1430" as="targetPoint"/>
                        <Array as="points">
                            <mxPoint x="520.74" y="1430"/>
                        </Array>
                    </mxGeometry>
                </mxCell>
                <mxCell id="257" style="edgeStyle=none;rounded=0;html=1;exitX=0.5;exitY=1;exitDx=0;exitDy=0;strokeWidth=2;fillColor=#e1d5e7;strokeColor=#9673a6;" edge="1" parent="1" source="258">
                    <mxGeometry relative="1" as="geometry">
                        <mxPoint x="681.0000000000002" y="1500" as="targetPoint"/>
                        <Array as="points">
                            <mxPoint x="521" y="1500"/>
                        </Array>
                    </mxGeometry>
                </mxCell>
                <mxCell id="258" value="MARH" style="rounded=0;whiteSpace=wrap;html=1;" vertex="1" parent="1">
                    <mxGeometry x="480.74" y="1450" width="80" height="40" as="geometry"/>
                </mxCell>
                <mxCell id="259" value="" style="endArrow=none;html=1;rounded=0;strokeWidth=2;fillColor=#e1d5e7;strokeColor=#9673a6;" edge="1" parent="1">
                    <mxGeometry width="50" height="50" relative="1" as="geometry">
                        <mxPoint x="681.0000000000002" y="1580" as="sourcePoint"/>
                        <mxPoint x="681.0000000000002" y="1500" as="targetPoint"/>
                    </mxGeometry>
                </mxCell>
                <mxCell id="260" value="" style="endArrow=classic;html=1;rounded=0;strokeWidth=2;fillColor=#e1d5e7;strokeColor=#9673a6;" edge="1" parent="1">
                    <mxGeometry width="50" height="50" relative="1" as="geometry">
                        <mxPoint x="681.0000000000002" y="1540" as="sourcePoint"/>
                        <mxPoint x="721.0000000000002" y="1540" as="targetPoint"/>
                    </mxGeometry>
                </mxCell>
                <mxCell id="261" value="" style="endArrow=none;html=1;rounded=0;strokeWidth=2;fillColor=#e1d5e7;strokeColor=#9673a6;" edge="1" parent="1">
                    <mxGeometry width="50" height="50" relative="1" as="geometry">
                        <mxPoint x="720" y="1540" as="sourcePoint"/>
                        <mxPoint x="720" y="1080" as="targetPoint"/>
                    </mxGeometry>
                </mxCell>
            </root>
        </mxGraphModel>
    </diagram>
</mxfile>
